<?xml version="1.0" standalone="no"?>
<!DOCTYPE svg PUBLIC "-//W3C//DTD SVG 20010904//EN"
 "http://www.w3.org/TR/2001/REC-SVG-20010904/DTD/svg10.dtd">
<svg version="1.0" xmlns="http://www.w3.org/2000/svg"
 width="700.000000pt" height="700.000000pt" viewBox="0 0 700.000000 700.000000"
 preserveAspectRatio="xMidYMid meet">
<metadata>
Created by potrace 1.11, written by Peter Selinger 2001-2013
</metadata>
<g transform="translate(0.000000,700.000000) scale(0.100000,-0.100000)"
fill="#000000" stroke="none">
<path d="M0 5545 c0 -800 3 -1455 8 -1455 4 0 24 11 44 25 20 14 39 25 42 25
3 0 75 41 201 117 11 6 34 19 50 27 17 9 48 27 70 41 22 14 60 36 85 50 25 14
52 30 60 35 8 5 74 44 145 85 72 41 137 79 145 85 8 5 51 30 95 55 44 25 87
50 95 55 33 22 272 160 275 160 2 0 39 22 82 48 43 26 92 55 108 64 17 8 183
105 370 215 188 110 345 202 350 204 6 2 78 44 160 93 83 48 179 105 215 126
592 345 775 452 812 473 24 13 78 44 119 69 41 24 106 63 144 85 39 22 147 86
240 140 94 55 185 109 204 119 18 11 41 24 50 29 9 6 50 30 91 53 41 24 91 52
110 64 19 11 94 54 165 95 72 42 142 84 157 94 15 11 29 19 32 19 5 0 258 149
265 156 2 2 -1119 4 -2492 4 l-2497 0 0 -1455z"/>
<path d="M6932 6960 c-34 -22 -65 -40 -67 -40 -2 0 -104 -58 -226 -130 -122
-71 -223 -130 -224 -130 -2 0 -39 -22 -82 -48 -43 -26 -85 -51 -93 -55 -8 -4
-28 -15 -45 -26 -36 -22 -449 -262 -497 -290 -19 -10 -68 -39 -109 -63 -90
-54 -84 -50 -749 -438 -294 -172 -553 -323 -575 -335 -52 -30 -156 -90 -455
-265 -135 -79 -258 -151 -275 -160 -24 -14 -1067 -622 -1410 -822 -38 -23 -81
-48 -95 -57 -14 -9 -34 -21 -45 -26 -33 -18 -528 -307 -555 -324 -14 -8 -34
-21 -45 -27 -33 -18 -338 -195 -364 -211 l-23 -15 23 -12 c36 -19 88 -49 284
-163 99 -58 212 -123 250 -145 39 -23 82 -49 97 -59 15 -11 29 -19 32 -19 2 0
61 -34 131 -75 69 -41 131 -75 136 -75 5 0 9 -4 9 -10 0 -5 4 -10 9 -10 7 0
163 -88 231 -131 17 -10 276 -161 327 -190 18 -10 126 -73 240 -140 115 -67
222 -129 238 -139 17 -9 108 -63 204 -119 96 -55 178 -101 182 -101 5 0 9 -4
9 -8 0 -4 12 -13 28 -20 40 -18 140 -76 154 -90 7 -7 16 -12 20 -12 5 0 26
-11 47 -24 30 -20 212 -126 386 -226 17 -9 92 -54 169 -99 76 -44 142 -81 147
-81 5 0 9 -4 9 -10 0 -5 4 -10 10 -10 5 0 44 -21 87 -46 43 -26 103 -60 133
-77 30 -16 62 -36 71 -43 8 -8 18 -14 21 -14 3 0 95 -52 204 -116 220 -129
353 -207 399 -234 17 -9 71 -40 120 -69 50 -29 97 -56 105 -62 23 -14 462
-270 490 -286 14 -7 243 -140 510 -296 l485 -283 3 1748 c1 961 1 2535 0 3498
l-3 1750 -63 -40z"/>
<path d="M0 1456 l0 -1456 2497 0 c1373 0 2494 3 2491 6 -6 5 -701 413 -783
459 -22 12 -362 210 -755 439 -740 432 -810 473 -1020 597 -69 41 -133 77
-142 81 -9 4 -45 25 -80 46 -35 22 -160 96 -278 164 -257 150 -498 290 -1299
757 -332 194 -610 355 -617 358 -12 4 -14 -224 -14 -1451z"/>
</g>
</svg>
