<!-- Created with Inkscape (http://www.inkscape.org/) -->
<svg xmlns:rdf="http://www.w3.org/1999/02/22-rdf-syntax-ns#" xmlns="http://www.w3.org/2000/svg" xml:space="preserve" version="1.1" xmlns:cc="http://creativecommons.org/ns#" xmlns:dc="http://purl.org/dc/elements/1.1/" viewBox="0 0 630 630"><metadata><rdf:RDF><cc:Work rdf:about=""><dc:format>image/svg+xml</dc:format><dc:type rdf:resource="http://purl.org/dc/dcmitype/StillImage"/><dc:title/></cc:Work></rdf:RDF></metadata><defs><clipPath id="clipPath16" clipPathUnits="userSpaceOnUse"><path d="M0,504,504,504,504,0,0,0,0,504z"/></clipPath></defs><g transform="matrix(1.25,0,0,-1.25,0,630)"><g clip-path="url(#clipPath16)"><g transform="translate(252.0047,459.8272)"><path fill-rule="nonzero" fill="#FFF" d="m0,0c-114.78,0-207.83-93.049-207.83-207.83,0-114.77,93.05-207.83,207.83-207.83s207.82,93.061,207.82,207.83c0,114.78-93.04,207.83-207.82,207.83"/></g><g transform="translate(252.0047,458.5772)"><path fill-rule="nonzero" fill="#b58a43" d="m0,0c-113.91,0-206.58-92.67-206.58-206.58s92.67-206.58,206.58-206.58c113.9,0,206.57,92.671,206.57,206.58s-92.67,206.58-206.57,206.58m0-415.65c-115.28,0-209.08,93.791-209.08,209.08,0,115.28,93.8,209.07,209.08,209.07s209.07-93.792,209.07-209.08c0-115.28-93.79-209.07-209.07-209.07"/></g><g transform="translate(260.6412,449.9027)"><path fill-rule="nonzero" fill="#0f284e" d="m0,0c-109.25,4.766-201.72-79.934-206.48-189.21-4.758-109.26,79.944-201.71,189.2-206.46,109.26-4.781,201.71,79.931,206.48,189.18,4.77,109.27-79.94,201.72-189.2,206.49"/></g><g transform="translate(252.0047,387.1512)"><path fill-rule="nonzero" fill="#FFF" d="m0,0c-74.596,0-135.08-60.471-135.08-135.09,0-74.599,60.488-135.07,135.08-135.07,74.613,0,135.08,60.474,135.08,135.07,0,74.619-60.467,135.09-135.08,135.09"/></g><g transform="translate(252.0047,376.978)"><path fill-rule="nonzero" fill="#b58a43" d="m0,0c-68.857,0-124.88-56.019-124.88-124.88,0-68.862,56.019-124.89,124.88-124.89,68.856,0,124.87,56.025,124.87,124.89,0,68.861-56.014,124.88-124.87,124.88m0-252.26c-70.235,0-127.38,57.146-127.38,127.39,0,70.23,57.145,127.37,127.38,127.37,70.236,0,127.37-57.14,127.37-127.38s-57.134-127.38-127.37-127.38"/></g><g transform="translate(227.708,156.087)"><path fill-rule="nonzero" fill="#0f284e" d="m0,0c-1.26,0-3.269,0-4.17-0.12-0.179-0.061-0.089,0.569,0,0.569,1.861,0.21,2.671,0.271,2.671,2.761v7.559c0,2.49-0.81,2.58-2.671,2.79-0.089,0-0.179,0.601,0,0.54,0.901-0.12,2.91-0.12,4.17-0.12,0.901,0,2.881,0.032,3.511,0.12,0.179,0.061,0.15-0.54,0.06-0.54-1.95-0.18-2.641-0.449-2.641-2.79v-7.559c0-2.341,0.691-2.58,2.641-2.761,0.09,0,0.119-0.63-0.06-0.569-0.63,0.09-2.61,0.12-3.511,0.12"/></g><g transform="translate(240.2485,172.078)"><path fill-rule="nonzero" fill="#0f284e" d="M0,0c0-2.19,1.89-3.42,3.929-4.651,1.591,0.989,2.491,2.4,2.491,4.141,0,2.129-1.41,3.63-3.33,3.63-1.86,0-3.09-1.262-3.09-3.12m-0.9-11.492c0-2.7,2.04-4.018,3.87-4.018,2.49,0,3.929,1.56,3.929,3.569,0,2.581-2.309,3.87-4.559,5.22-2.13-1.05-3.24-2.461-3.24-4.771m-2.31,0c0,2.222,1.71,4.141,4.589,5.34-1.919,1.23-3.54,2.58-3.54,4.831,0,3.15,2.55,5.34,5.791,5.34,2.699,0,4.92-1.919,4.92-4.38,0-2.1-1.26-3.511-3.72-4.829,2.13-1.321,4.14-2.82,4.14-5.462,0-3.24-2.61-5.788-6.36-5.788-3.12,0-5.82,2.038-5.82,4.948"/></g><g transform="translate(256.6885,151.5263)"><path fill-rule="nonzero" fill="#0f284e" d="m0,0c3.54,5.911,6.9,12.031,9.209,16.23h-6.15c-2.849,0-3.33-0.481-3.449-2.309,0-0.061-0.54-0.061-0.54,0.029-0.061,0.72,0.178,3.75,0.3,4.202,0.088,0.329,0.21,0.478,0.569,0.478,0.959,0,2.91-0.09,4.829-0.09,2.61,0,4.112,0.032,6.001,0.151,0.12,0,0.481-0.63,0.391-0.781-2.73-4.98-6.9-12.9-9.78-18.479-0.152-0.271-1.56,0.3-1.38,0.569"/></g><g transform="translate(275.8267,168.416)"><path fill-rule="nonzero" fill="#0f284e" d="m0,0c-0.869,0-1.531-1.079-1.531-2.129,0-0.93,0.301-1.44,3.963-3.181,2.668-1.26,3.838-3.088,3.838-5.129,0-3.24-2.998-5.97-8.728-7.081-0.181-0.029-0.242,0.54-0.181,0.54,3.178,0.811,6.479,2.7,6.479,5.762,0,1.68-0.72,2.788-3.359,3.989-2.19,0.989-3.33,1.86-3.33,3.54,0,0.75,0.359,2.129,0.659,2.881,0.93,2.219,1.799,3.088,2.94,3.088,0.961,0,2.28-0.808,3.84-0.808,0.72,0,0.991,0.42,1.259,1.619,0,0.061,0.543,0.09,0.543-0.059-0.061-2.942-0.901-3.93-2.28-3.93-1.56,0-2.701,0.898-4.112,0.898"/></g><g transform="translate(112.4468,171.607)"><path fill-rule="nonzero" fill="#FFF" d="M0,0-2.113-7.886-9.999-5.771-7.885,2.114,0,0z"/></g><g transform="translate(92.5848,199.4023)"><path fill-rule="nonzero" fill="#FFF" d="m0,0c-1.327,4.114-3.064,4.702-5.505,3.914-3.346-1.079-3.998-3.238-3.064-6.131,0.145-0.452,0.251-0.466,0.411-0.964,1.114,0.11,2.167,0.4,4.654,1.201l10.352,3.34c3.662,1.182,4.461,1.34,3.643,3.872-1.21,3.752-3.152,4.973-6.316,3.953-3.301-1.067-5.178-4.219-3.135-8.85,0.044-0.135-0.996-0.472-1.04-0.335m13.026,1.706c0.628-1.943,1.342-4.159,1.975-5.502,0.191-0.437-0.8-0.457-0.844-0.322-1.28,2.883-1.968,3.158-6.263,1.774l-10.217-3.298c-4.294-1.384-4.691-2.012-4.09-5.112,0.044-0.137-0.833-0.669-0.888-0.188-0.212,1.43-0.737,3.056-1.379,5.046-0.263,0.815-1.112,2.986-1.477,4.116-1.241,3.843-0.569,7.952,2.821,9.046,1.899,0.613,4.562-0.525,6.162-2.854-1.028,3.962,0.37,7.209,3.309,8.156,3.797,1.226,7.979-1.369,9.641-6.523,0.365-1.13,0.973-3.479,1.25-4.339"/></g><g transform="translate(77.6118,223.0865)"><path fill-rule="nonzero" fill="#FFF" d="m0,0c0.686-0.09,2.063,0.02,4.6,0.395l5.638,0.84c-0.062,0.423-0.058,0.711-0.148,1.321-0.692,4.654-2.75,6.221-5.945,5.745-3.947-0.586-5.021-3.052-4.414-7.139,0.077-0.517,0.146-0.652,0.269-1.162m11.445,2.807c0.105-0.705,0.14-0.94,0.157-1.369l3.946,0.586c4.229,0.63,5.026,1.084,4.833,4.321-0.021,0.139,0.951,0.381,0.9,0.085,0.019-1.101,0.328-3.505,0.551-5.009,0.308-2.068,0.651-4.37,1.062-5.845,0.136-0.269-0.872-0.273-0.893-0.132-0.783,3.005-1.431,3.484-5.894,2.82l-10.619-1.577c-4.088-0.608-4.869-1.494-4.625-3.137,0.056-0.376,0.166-0.791,0.337-1.294,0.122-0.176-0.736-0.542-0.825-0.269-0.694,1.436-1.503,5.589-2.076,9.441-0.943,6.343,0.574,10.027,4.334,10.586,2.349,0.349,4.902-1.001,6.489-3.599,4.515,2.593,10.335,8.021,9.727,12.11-0.021,0.142,0.851,0.415,0.892,0.132,1.146-7.706-3.655-12.886-8.969-15.262,0.267-0.825,0.568-1.884,0.673-2.588"/></g><g transform="translate(97.0648,251.6558)"><path fill-rule="nonzero" fill="#FFF" d="m0,0c0.012-2.136,0.024-4.417,0.223-5.935,0.098-0.381-0.902-0.149-0.902-0.054-0.35,3.135-0.97,3.606-5.436,3.582l-10.736-0.061c-4.513-0.025-5.127-0.503-5.442-3.641,0-0.095-0.948-0.29-0.903,0.088,0.23,1.475,0.216,3.755,0.204,5.894-0.007,1.424-0.116,3.894-0.265,4.985-0.05,0.38,0.902,0.196,0.902,0.1,0.257-3.276,1.255-3.602,5.484-3.579l10.734,0.06c4.229,0.024,5.13,0.361,5.396,3.64,0,0.095,0.948,0.291,0.903-0.089-0.136-1.094-0.169-3.564-0.162-4.99"/></g><g transform="translate(98.1365,284.7892)"><path fill-rule="nonzero" fill="#FFF" d="m0,0c1.214-3.335,1.814-6.249,1.321-9.778-1.135-8.14-7.289-12.364-13.405-11.511-6.445,0.9-11.827,7.358-10.698,15.45,0.465,3.34,2.577,6.787,3.228,7.32,0.274,0.25,3.331,0.158,5.516-0.339,0.235-0.032,0.016-0.913-0.078-0.899-2.802,0.199-6.657-2.333-7.333-7.179-0.735-5.27,2.247-9.331,8.599-10.217,7.67-1.071,12.016,2.928,12.726,8.009,0.511,3.669-0.304,4.359-0.795,4.619-0.356,0.194-1.426,0.439-2.226,0.55-4.516,0.63-4.725,0.515-5.532-3.209-0.019-0.14-0.98-0.15-0.893,0.125,0.35,1.486,0.813,4.107,1.101,6.178,0.204,1.458,0.451,3.582,0.462,4.683-0.055,0.296,0.873,0.071,0.854-0.07-0.165-3.239,0.258-3.299,4.729-3.923,1.034-0.144,1.841-0.208,2.424,0.191"/></g><g transform="translate(106.889,306.1527)"><path fill-rule="nonzero" fill="#FFF" d="m0,0c-0.033-0.239-0.899,0.164-0.852,0.298,0.593,2.711,0.137,3.423-4.035,4.878l-4.575,1.595-4.192-12.021,4.576-1.596c3.947-1.377,5.014-1.346,6.177,1.267,0.047,0.135,1.02-0.103,0.837-0.341-0.511-1.031-1.243-2.989-1.743-4.423-0.673-1.929-1.55-4.441-1.871-5.939-0.003-0.3-0.898,0.163-0.852,0.297,0.785,3.55,0.447,4.02-3.814,5.506l-10.138,3.534c-4.262,1.486-4.909,1.36-6.457-1.925-0.046-0.134-1.02,0.106-0.836,0.343,0.709,1.313,1.585,3.824,2.257,5.752,0.501,1.436,1.099,3.442,1.339,4.564,0.005,0.301,0.916-0.117,0.868-0.252-0.714-2.769,0.104-3.456,4.096-4.849l4.261-1.485,4.191,12.021-4.262,1.486c-4.216,1.47-5.061,1.211-6.236-1.297-0.048-0.134-1.021,0.104-0.897,0.313,0.709,1.312,1.425,3.226,2.098,5.155,0.516,1.48,1.334,4.112,1.559,5.191,0.004,0.301,0.946-0.028,0.868-0.252-0.951-3.593-0.161-4.069,3.876-5.476l10.138-3.535c4.036-1.408,4.862-1.495,6.395,1.895,0.078,0.224,1.02-0.105,0.837-0.342-0.494-0.984-1.446-3.571-1.963-5.051-0.672-1.928-1.329-3.813-1.65-5.311"/></g><g transform="translate(107.1405,331.3115)"><path fill-rule="nonzero" fill="#FFF" d="M0,0,3.319,5.708-5.06,7.173,0,0zm12.148,0.573c-0.061-0.295-0.852,0.33-0.78,0.454,0.647,1.491,1.354,2.235,0.532,2.712-0.943,0.549-2.609,0.803-4.479,1.177l-2.607,0.527-3.869-6.653,1.627-2.211c1.354-1.83,2.282-2.974,3.103-3.451,0.698-0.407,1.152,0.373,2.039,1.616,0.119,0.205,0.982-0.296,0.757-0.495-0.673-0.873-1.455-2.121-2.218-3.436-1.027-1.765-1.194-2.053-1.818-3.503-0.103-0.271-0.852,0.329-0.78,0.453,1.029,2.149,0.542,3.861-2.001,7.428l-10.942,15.485c-0.158,0.202,0.04,0.636,0.334,0.575l18.346-2.755c3.649-0.529,5.503-0.837,7.468,1.975,0.072,0.124,0.982-0.295,0.757-0.494-0.697-0.914-1.764-2.657-2.552-4.011-1.027-1.765-2.317-3.983-2.917-5.393"/></g><g transform="translate(139.7968,358.936)"><path fill-rule="nonzero" fill="#FFF" d="m0,0c-0.118-0.277-0.801,0.458-0.706,0.564,1.619,2.247,1.438,3.044-1.929,5.978l-9.46,8.162,8.613-18.475c0.115-0.228-0.268-0.587-0.473-0.532l-19.603,5.553,8.923-8.195c2.843-2.592,3.99-3.232,6.351-1.008,0.094,0.106,0.902-0.486,0.642-0.636-0.832-0.721-1.721-1.648-2.73-2.783-1.359-1.526-2.37-2.663-3.238-3.925-0.118-0.276-0.769,0.495-0.675,0.601,1.836,2.563,1.407,3.581-1.582,6.368l-9.176,8.483c-1.21,1.14-3.596,1.102-5.609-0.731-0.095-0.106-0.899,0.418-0.64,0.567,1.41,1.227,3.052,3.073,5.293,5.592l19.013-5.217-5.277,10.863c-1.147,2.356-2.087,4.656-3.192,6.275,1.685,1.679,4.046,4.475,5.006,5.91,0.118,0.276,0.765-0.426,0.702-0.498-2.246-3.024-1.765-3.769,1.491-6.54l8.147-6.995c3.257-2.771,4.116-3.092,6.762-0.548,0.094,0.106,0.902-0.486,0.642-0.636-0.864-0.757-2.7-2.748-3.71-3.884-1.422-1.597-2.716-3.052-3.585-4.313"/></g><g transform="translate(164.2413,393.842)"><path fill-rule="nonzero" fill="#FFF" d="m0,0,2.945-4.601c2.713-4.242,3.084-4.117,5.959-2.616,0.12,0.076,0.737-0.713,0.447-0.786-1.038-0.494-3.064-1.735-4.345-2.554-1.8-1.152-3.722-2.381-4.9-3.36-0.188-0.233-0.605,0.683-0.485,0.76,2.396,1.984,2.923,2.04,0.083,6.482l-2.638,4.121-5.343,2.446c-5.683,2.625-6.813,2.805-9.488,1.431-0.119-0.077-0.777,0.687-0.486,0.761,1.384,0.659,2.944,1.657,4.704,2.784,1.28,0.819,3.216,2.113,4.06,2.822,0.188,0.233,0.646-0.657,0.526-0.735-2.473-1.864-1.492-2.251,4.022-4.7l3.477-1.554,0.25,4.896c0.31,5.951-0.007,5.917-2.627,4.636-0.121-0.077-0.818,0.66-0.447,0.785,1.343,0.634,2.624,1.454,4.384,2.58,1.28,0.819,2.056,1.371,2.899,2.079,0.189,0.235,0.647-0.657,0.526-0.734-2.473-1.864-2.834-2.885-3.152-8.559l-0.371-6.384z"/></g><g transform="translate(180.5975,404.218)"><path fill-rule="nonzero" fill="#FFF" d="M0,0c2.932-7.217,9.074-9.081,13.474-7.292,4.71,1.912,6.962,6.212,4.566,12.109-2.932,7.218-9.153,9.152-13.554,7.363-4.709-1.913-6.899-6.239-4.486-12.18m-3.125-2.91c-2.45,6.03,0.587,13.827,7.805,16.759,6.778,2.754,14.054-0.392,16.397-6.157,2.431-5.985-0.561-13.765-7.822-16.715-6.734-2.736-14.037,0.348-16.38,6.113"/></g><g transform="translate(231.0345,414.5147)"><path fill-rule="nonzero" fill="#FFF" d="m0,0c0.924-4.756-1.886-9.464-8.135-10.679-5.409-1.052-10.687,1.454-11.775,7.05l-1.596,8.206c-0.862,4.43-1.492,4.937-4.596,4.721-0.14-0.028-0.414,0.886-0.116,0.848,1.49,0.048,3.719,0.53,5.818,0.938,1.492,0.29,3.814,0.79,4.907,1.147,0.261,0.148,0.443-0.784,0.21-0.83-3.117-0.896-3.216-1.883-2.4-6.08l1.443-7.415c1.06-5.455,5.075-7.191,8.667-6.493,4.709,0.917,6.69,3.915,5.757,8.719l-1.614,8.299c-0.78,4.01-1.429,4.611-4.533,4.393-0.243,0.002-0.415,0.888-0.117,0.849,1.492,0.049,2.555,0.304,4.607,0.703,1.446,0.281,2.975,0.626,4.02,0.976,0.364,0.118,0.35-0.804,0.256-0.822-3.162-0.906-3.243-1.986-2.508-5.763l1.705-8.767z"/></g><g transform="translate(264.174,413.366)"><path fill-rule="nonzero" fill="#FFF" d="m0,0c-0.012-1.758,0.01-4.988,0.188-6.51,0-0.143-0.571-0.329-0.855-0.04l-17.582,18.137-0.087-11.448c-0.028-3.8,0.294-5.133,3.569-5.443,0.095,0,0.182-0.998-0.101-0.902-1.093,0.151-2.374,0.209-3.847,0.219-2.089,0.017-3.61,0.027-5.131-0.151-0.238-0.045-0.136,0.905,0.006,0.904,3.138,0.308,3.62,1.35,3.652,5.386l0.092,12.209c0.012,1.615-2.964,3.823-4.577,4.026-0.143,0.001-0.231,0.998,0.054,0.902,1.471-0.249,4.226-0.318,6.268-0.333l16.449-17.275,0.083,11.069c0.032,4.085-0.437,5.134-3.521,5.49-0.236,0.049-0.229,0.999,0.054,0.902,1.423-0.249,2.61-0.257,4.703-0.273,1.518-0.012,3.134,0.071,4.179,0.205,0.476,0.044,0.232-0.903,0.137-0.903-3.328-0.213-3.623-1.635-3.653-5.436l-0.08-10.735z"/></g><g transform="translate(293.5635,404.1667)"><path fill-rule="nonzero" fill="#FFF" d="m0,0c-3.398-1.022-6.34-1.456-9.836-0.764-8.062,1.597-11.929,7.98-10.73,14.038,1.264,6.383,8.017,11.39,16.033,9.803,3.308-0.655,6.628-2.959,7.124-3.638,0.234-0.289-0.03-3.335-0.65-5.489-0.046-0.233-0.913,0.036-0.896,0.129,0.359,2.786-1.951,6.778-6.75,7.729-5.22,1.034-9.444-1.714-10.689-8.004-1.504-7.597,2.241-12.163,7.273-13.159,3.635-0.721,4.37,0.055,4.658,0.529,0.213,0.346,0.518,1.399,0.677,2.192,0.883,4.473,0.781,4.687-2.891,5.705-0.139,0.027-0.095,0.986,0.176,0.885,1.462-0.434,4.052-1.045,6.103-1.451,1.446-0.286,3.552-0.655,4.651-0.727,0.298,0.038,0.02-0.876-0.12-0.848-3.222,0.348-3.305-0.072-4.184-4.498-0.203-1.026-0.313-1.827,0.051-2.432"/></g><g transform="translate(333.8882,394.0885)"><path fill-rule="nonzero" fill="#FFF" d="m0,0c-2.151-4.342-7.241-6.382-12.944-3.558-4.939,2.443-7.617,7.638-5.088,12.748l3.708,7.492c2.002,4.045,1.807,4.831-0.793,6.541-0.127,0.062,0.21,0.955,0.422,0.744,1.216-0.865,3.279-1.834,5.196-2.783,1.362-0.674,3.513-1.684,4.597-2.063,0.298-0.04-0.125-0.892-0.337-0.787-3.02,1.178-3.699,0.453-5.593-3.379l-3.352-6.77c-2.464-4.982-0.325-8.797,2.954-10.419,4.301-2.128,7.695-0.946,9.865,3.44l3.75,7.578c1.812,3.663,1.661,4.533-0.94,6.242-0.19,0.149,0.21,0.957,0.423,0.745,1.213-0.865,2.214-1.308,4.086-2.235,1.322-0.653,2.747-1.306,3.79-1.662,0.361-0.126-0.208-0.851-0.293-0.808-3.064,1.197-3.784,0.388-5.491-3.062l-3.96-8.004z"/></g><g transform="translate(359.545,373.0595)"><path fill-rule="nonzero" fill="#FFF" d="M0,0c-1.079-1.388-3.023-3.97-3.804-5.287-0.088-0.112-0.654,0.087-0.705,0.487l-2.957,25.087-7.019-9.044c-2.332-3.002-2.883-4.257-0.469-6.491,0.074-0.058-0.461-0.904-0.63-0.655-0.774,0.782-1.76,1.606-2.922,2.509-1.65,1.282-2.852,2.214-4.17,2.996-0.217,0.109,0.442,0.801,0.554,0.713,2.681-1.66,3.697-1.126,6.172,2.064l7.486,9.645c0.991,1.275-0.032,4.837-1.192,5.976-0.112,0.089,0.422,0.934,0.591,0.685,1.018-1.091,3.164-2.818,4.778-4.071l2.58-23.712,6.788,8.744c2.505,3.228,2.77,4.344,0.534,6.5-0.156,0.183,0.425,0.934,0.591,0.684,0.981-1.062,1.919-1.79,3.572-3.072,1.198-0.932,2.534-1.846,3.447-2.375,0.403-0.254-0.366-0.859-0.442-0.801-2.771,1.852-3.872,0.901-6.201-2.102l-6.582-8.48z"/></g><g transform="translate(365.8877,357.802)"><path fill-rule="nonzero" fill="#FFF" d="m0,0c-1.46,1.561-3.018,3.226-4.194,4.207-0.33,0.212,0.561,0.72,0.627,0.651,2.385-2.062,3.159-1.988,6.421,1.063l7.842,7.332c3.296,3.083,3.423,3.851,1.523,6.368-0.063,0.069,0.501,0.857,0.725,0.547,0.833-1.237,2.391-2.904,3.85-4.465,0.972-1.04,2.73-2.78,3.58-3.48,0.295-0.245-0.53-0.756-0.594-0.686-2.412,2.231-3.369,1.793-6.457-1.095l-7.84-7.333c-3.088-2.887-3.52-3.746-1.489-6.335,0.064-0.07-0.5-0.857-0.725-0.547-0.642,0.894-2.295,2.732-3.269,3.773"/></g><g transform="translate(379.8257,339.7355)"><path fill-rule="nonzero" fill="#FFF" d="m0,0c-0.144-0.042-0.547,0.371-0.396,0.652l9.822,15.986c2.222,3.629,2.727,5.313,1.294,7.787-0.082,0.117,0.655,0.804,0.74,0.516,0.535-1.016,1.678-2.825,2.519-4.034,1.194-1.715,2.689-3.859,3.697-4.893,0.242-0.179-0.54-0.722-0.713-0.555-1.052,1.178-1.645,1.865-2.424,1.322-0.547-0.381-1.453-1.242-2.754-3.364l-6.67-10.953,12.561,2.494c2.834,0.584,3.462,0.848,4.165,1.336,0.662,0.461,0.461,1.249-0.318,2.616-0.08,0.117,0.657,0.805,0.74,0.516,0.508-0.978,1.272-2.241,2.141-3.489,1.221-1.753,1.411-2.026,2.446-3.099,0.242-0.179-0.629-0.671-0.712-0.555-1.47,1.696-3.1,2.125-7.59,1.256l-18.548-3.539z"/></g><g transform="translate(395.3775,312.177)"><path fill-rule="nonzero" fill="#FFF" d="m0,0c-0.576,1.199-1.372,3.293-2.524,5.691-1.563,3.254-3.435,7.151-4.759,9.467-0.124,0.256,0.752,0.518,0.813,0.39,1.948-3.069,2.522-3.163,6.59-1.208l9.677,4.648c4.068,1.954,4.436,2.501,3.216,5.919-0.061,0.129,0.776,0.69,0.857,0.412,0.937-2.5,2.705-6.289,4.267-9.544,1.111-2.312,2.268-4.497,3.384-6.384-0.786-0.116-1.687-0.548-2.329-0.856-0.342-0.165-1.304-0.575-1.499-0.72-0.086-0.042-0.518,0.752-0.432,0.793,1.289,0.935,1.728,1.779-0.269,5.932l-1.335,2.783c-0.791-0.221-2.01-0.754-4.024-1.721l-3.938-1.892,1.028-2.141c1.729-3.596,1.936-3.813,3.472-3.498,0.085,0.042,0.52-0.752,0.286-0.812-0.535-0.097-1.883-0.692-2.61-1.042-0.386-0.184-1.541-0.74-1.841-0.884-0.003-0.106-0.476,0.773-0.435,0.792,1.526,1.103,1.531,1.421-0.114,4.847l-1.028,2.141-4.238-2.036c-4.112-1.975-4.395-2.375-3.694-3.83l0.8-1.67c2.366-4.924,3.113-4.724,5.437-4.187,0.044,0.021,0.454-0.836,0.328-0.897-0.877-0.262-3.14-0.928-3.885-1.023-0.703-0.179-0.935-0.027-1.201,0.53"/></g><g transform="translate(421.1612,305.1445)"><path fill-rule="nonzero" fill="#FFF" d="M0,0c-0.691-0.006-2.039-0.306-4.5-1.034l-5.466-1.616c0.122-0.41,0.159-0.697,0.332-1.289,1.336-4.509,3.591-5.774,6.69-4.859,3.825,1.132,4.546,3.722,3.374,7.686-0.149,0.502-0.235,0.624-0.43,1.112m-10.94-4.375c-0.203,0.682-0.271,0.911-0.347,1.334l-3.825-1.131c-4.1-1.212-4.827-1.774-4.182-4.953,0.039-0.137-0.889-0.51-0.879-0.21-0.174,1.088-0.816,3.424-1.248,4.882-0.591,2.004-1.252,4.237-1.865,5.641-0.171,0.246,0.825,0.393,0.867,0.256,1.194-2.867,1.901-3.252,6.23-1.973l10.293,3.045c3.965,1.173,4.614,2.157,4.143,3.751-0.108,0.365-0.276,0.762-0.515,1.236-0.144,0.155,0.654,0.639,0.781,0.379,0.887-1.323,2.268-5.323,3.372-9.059,1.818-6.15,0.83-10.008-2.815-11.086-2.278-0.674-4.995,0.306-6.929,2.656-4.106-3.196-9.114-9.382-7.942-13.346,0.042-0.137-0.784-0.529-0.864-0.255-2.21,7.471,1.821,13.269,6.753,16.362-0.381,0.78-0.828,1.787-1.028,2.471"/></g><g transform="translate(406.874,280.7195)"><path fill-rule="nonzero" fill="#FFF" d="m0,0c0.115,0.207,2.769,0.433,5.283,0.638,0.235,0.033,0.259-0.826,0.164-0.84-3.535-0.78-6.096-3.055-5.586-6.724,0.354-2.541,2.102-4.073,4.36-3.758,5.882,0.818,4.441,11.17,10.886,12.066,3.247,0.451,6.993-2,7.596-6.328,0.288-2.071-0.142-3.473-0.676-4.795-0.149-0.309-2.027-0.954-4.424-1.287-0.142-0.021-0.274,0.92-0.132,0.94,2.529,0.784,4.082,2.727,3.728,5.267-0.308,2.212-1.619,3.708-3.784,3.407-5.647-0.786-4.09-10.928-10.867-11.872-3.858-0.536-7.617,2.009-8.24,6.479-0.359,2.588,0.396,4.755,1.692,6.807"/></g><g transform="translate(407.3942,254.4315)"><path fill-rule="nonzero" fill="#FFF" d="M0,0c-0.037,2.137-0.073,4.418-0.291,5.934-0.1,0.378,0.901,0.159,0.904,0.063,0.383-3.129,1.011-3.593,5.473-3.518l10.736,0.182c4.511,0.076,5.121,0.562,5.399,3.703,0,0.094,0.948,0.3,0.906-0.081-0.212-1.476-0.173-3.756-0.139-5.894,0.024-1.424,0.161-3.892,0.322-4.981,0.054-0.381-0.898-0.208-0.901-0.112-0.293,3.274-1.296,3.589-5.522,3.517l-10.735-0.181c-4.226-0.071-5.124-0.419-5.354-3.703,0.003-0.092-0.945-0.3-0.903,0.081,0.125,1.096,0.129,3.566,0.105,4.99"/></g><g transform="translate(423.1657,218.9923)"><path fill-rule="nonzero" fill="#FFF" d="m0,0c-0.142,0.017,0.01,0.859,0.105,0.85,1.597,0.136,2.832,1.227,3.301,4.997l0.385,3.113-14.943,1.855c-4.195,0.52-5.127,0.347-5.818-2.917-0.017-0.142-0.972-0.117-0.879,0.254,0.276,1.067,0.622,3.464,0.808,4.973,0.251,2.026,0.54,4.336,0.532,5.82-0.046,0.391,0.918,0.078,0.901-0.063-0.056-3.152,0.498-3.699,4.929-4.248l14.944-1.856,0.41,3.301c0.452,3.628-0.41,5.171-2.002,5.847-0.024,0.196,0.064,0.903,0.201,0.838,0.734-0.235,2.514-0.552,3.505-0.674,0.376-0.047,1.084-0.134,1.863-0.039,0.147,0.029,0.088-0.825-0.058-0.855-1.167-0.144-1.226-0.232-1.858-5.322l-1.27-10.229c-0.625-5.047-0.654-5.281,0.488-5.711,0.137-0.064-0.021-0.954-0.2-0.837-0.73,0.283-1.943,0.53-3.123,0.676-0.566,0.071-1.745,0.215-2.221,0.227"/></g><g transform="translate(411.1782,201.4775)"><path fill-rule="nonzero" fill="#FFF" d="m0,0-5.227,1.592c-4.817,1.467-5.017,1.13-6.23-1.875-0.042-0.137-1.026,0.063-0.85,0.308,0.466,1.049,1.203,3.308,1.648,4.76,0.623,2.046,1.287,4.226,1.548,5.738-0.007,0.3,0.903-0.127,0.861-0.264-0.534-3.064-0.9-3.45,4.143-4.985l4.683-1.426,5.652,1.606c6.028,1.69,7.002,2.288,8.147,5.069,0.042,0.134,1.038-0.02,0.864-0.264-0.625-1.399-1.164-3.171-1.772-5.171-0.445-1.455-1.077-3.694-1.257-4.783,0.007-0.3-0.921,0.083-0.879,0.218,0.673,3.025-0.325,2.683-6.111,0.966l-3.652-1.071,2.985-3.89c3.626-4.729,3.845-4.497,5.007-1.821,0.042,0.137,1.053,0.027,0.85-0.307-0.61-1.355-1.052-2.808-1.663-4.808-0.441-1.455-0.673-2.378-0.854-3.464,0.007-0.3-0.92,0.081-0.879,0.217,0.674,3.023,0.286,4.036-3.154,8.557l-3.86,5.098z"/></g><g transform="translate(391.7202,171.06)"><path fill-rule="nonzero" fill="#FFF" d="M0,0,7.893,2.083,9.976-5.811,2.083-7.893,0,0z"/></g><g transform="translate(127,138.2843)"><path fill-rule="nonzero" fill="#FFF" d="M0,0c-0.096,0.105,0.536,0.681,0.632,0.576,0.064-0.071,0.16-0.176,0.287-0.317,2.209-2.422,4.988-2.652,7.797-0.093,2.668,2.432,2.652,4.988,0.445,7.41-0.223,0.246-0.838,0.778-1.192,1.098-0.933-0.527-1.706-1.233-3.672-3.022l-7.934-7.232c-3.161-2.878-3.601-3.667-1.636-6.245,0.096-0.105-0.578-0.847-0.698-0.573-0.632,0.903-2.228,2.726-3.251,3.849-1.409,1.546-2.945,3.231-4.108,4.227-0.327,0.217,0.571,0.713,0.667,0.607,2.357-2.094,3.099-2.06,6.434,0.979l7.934,7.229c3.301,3.008,3.438,3.775,1.607,6.348-0.095,0.108,0.447,0.923,0.632,0.576,0.884-1.25,2.035-2.514,3.411-4.023,0.576-0.632,2.345-2.363,3.209-3.311,3.231-3.547,4.038-7.888,1.265-10.415-3.09-2.814-7.767-2.128-11.509,1.98-0.128,0.142-0.257,0.281-0.32,0.352"/></g><g transform="translate(152.475,130.4303)"><path fill-rule="nonzero" fill="#FFF" d="m0,0c-0.562-0.403-1.491-1.426-3.082-3.438l-3.538-4.47c0.336-0.263,0.53-0.478,1.014-0.862,3.688-2.917,6.261-2.651,8.265-0.119,2.475,3.13,1.572,5.661-1.669,8.227-0.41,0.323-0.551,0.374-0.99,0.662m-6.424-9.88c-0.559,0.444-0.744,0.59-1.051,0.893l-2.475-3.13c-2.653-3.352-2.922-4.228-0.567-6.457,0.113-0.088-0.432-0.931-0.596-0.679-0.768,0.791-2.638,2.332-3.831,3.274-1.639,1.296-3.464,2.742-4.774,3.535-0.283,0.103,0.448,0.796,0.56,0.708,2.627-1.655,3.428-1.562,6.228,1.978l6.66,8.418c2.565,3.242,2.528,4.421,1.225,5.451-0.298,0.237-0.663,0.464-1.132,0.716-0.207,0.041,0.166,0.898,0.42,0.756,1.486-0.569,4.919-3.044,7.974-5.461,5.029-3.977,6.444-7.703,4.087-10.681-1.475-1.863-4.259-2.627-7.194-1.819-1.516-4.98-2.045-12.92,1.196-15.483,0.111-0.091-0.337-0.887-0.56-0.708-6.11,4.831-6.155,11.894-3.906,17.263-0.76,0.42-1.704,0.984-2.264,1.426"/></g><g transform="translate(167.835,108.2768)"><path fill-rule="nonzero" fill="#FFF" d="m0,0c-3.572-6.924-0.99-12.798,3.232-14.976,4.517-2.329,9.247-1.242,12.165,4.414,3.571,6.924,0.991,12.906-3.232,15.083-4.516,2.33-9.226,1.177-12.165-4.521m-4.243,0.479c2.983,5.783,10.877,8.552,17.801,4.98,6.502-3.352,8.85-10.923,5.998-16.455-2.962-5.74-10.815-8.53-17.781-4.939-6.459,3.332-8.871,10.884-6.018,16.414"/></g><g transform="translate(202.271,79.6098)"><path fill-rule="nonzero" fill="#FFF" d="m0,0c-0.085-0.124-0.659-0.053-0.715,0.261l-2.343,18.613c-0.54,4.222-1.199,5.85-3.866,6.883-0.137,0.042,0.009,1.037,0.255,0.867,1.054-0.459,3.077-1.155,4.49-1.57,2.005-0.591,4.511-1.328,5.945-1.504,0.3,0.012,0.032-0.901-0.21-0.879-1.557,0.261-2.45,0.425-2.717-0.486-0.188-0.639-0.356-1.877-0.043-4.345l1.653-12.718,8.236,9.805c1.844,2.231,2.169,2.827,2.411,3.647,0.228,0.777-0.421,1.265-1.884,1.843-0.136,0.04,0.007,1.038,0.254,0.867,1.009-0.446,2.394-0.954,3.853-1.382,2.049-0.605,2.369-0.698,3.848-0.886,0.301,0.01-0.073-0.92-0.209-0.879-2.209,0.403-3.748-0.283-6.706-3.769l-12.252-14.368z"/></g><g transform="translate(226.9538,87.2808)"><path fill-rule="nonzero" fill="#FFF" d="m0,0c-0.746-7.754,3.833-12.251,8.561-12.705,5.059-0.486,9.047,2.28,9.657,8.616,0.744,7.753-3.872,12.351-8.6,12.805-5.06,0.486-9.005-2.332-9.618-8.716m-4.118-1.131c0.623,6.478,6.925,11.981,14.681,11.236,7.281-0.701,12.273-6.861,11.677-13.054-0.618-6.431-6.874-11.936-14.675-11.187-7.234,0.696-12.278,6.812-11.683,13.005"/></g><g transform="translate(252.7432,68.4575)"><path fill-rule="nonzero" fill="#FFF" d="M0,0c3.04,0.054,3.777,1.396,3.755,2.583-0.015,0.808-0.545,1.274-1.694,1.824-0.911,0.41-1.346,0.784-1.36,1.592-0.016,0.901,0.732,1.579,1.731,1.596,1.518,0.029,3.157-1.225,3.198-3.552,0.049-2.754-2.29-4.888-5.567-4.946-0.284-0.005-0.158,0.9-0.063,0.903"/></g><g transform="translate(302.5507,88.399)"><path fill-rule="nonzero" fill="#FFF" d="m0,0c1.138-4.71-1.46-9.539-7.647-11.035-5.356-1.294-10.742,0.974-12.08,6.514l-1.963,8.127c-1.06,4.387-1.711,4.863-4.802,4.509-0.139-0.034-0.454,0.867-0.156,0.84,1.489,0.117,3.694,0.698,5.771,1.199,1.477,0.358,3.774,0.962,4.849,1.367,0.256,0.159,0.478-0.764,0.247-0.82-3.072-1.036-3.125-2.024-2.122-6.182l1.772-7.341c1.307-5.401,5.396-6.956,8.95-6.097,4.664,1.129,6.509,4.212,5.359,8.968l-1.984,8.217c-0.96,3.973-1.634,4.541-4.725,4.188-0.241-0.01-0.454,0.866-0.156,0.842,1.489,0.115,2.54,0.417,4.571,0.908,1.43,0.344,2.944,0.759,3.971,1.155,0.36,0.134,0.386-0.786,0.293-0.808-3.117-1.048-3.149-2.132-2.246-5.872l2.098-8.679z"/></g><g transform="translate(329.8357,110.982)"><path fill-rule="nonzero" fill="#FFF" d="m0,0c0.059-0.13-0.737-0.445-0.776-0.357-0.957,1.285-2.537,1.761-5.989,0.174l-2.85-1.309,6.292-13.682c1.766-3.84,2.402-4.541,5.542-3.41,0.13,0.058,0.613-0.764,0.249-0.881-1.052-0.328-3.274-1.294-4.656-1.931-1.855-0.853-3.97-1.824-5.229-2.613-0.306-0.247-0.549,0.74-0.42,0.801,2.71,1.611,2.883,2.37,1.018,6.428l-6.292,13.679-3.019-1.389c-3.323-1.528-4.182-3.071-3.919-4.78-0.152-0.125-0.801-0.423-0.816-0.271-0.187,0.749-0.856,2.429-1.274,3.335-0.159,0.344-0.456,0.993-0.945,1.604-0.102,0.11,0.654,0.51,0.757,0.4,0.735-0.918,0.84-0.92,5.503,1.223l9.363,4.307c4.619,2.124,4.834,2.222,4.597,3.42-0.017,0.149,0.823,0.484,0.818,0.272,0.144-0.77,0.573-1.932,1.069-3.011,0.24-0.517,0.735-1.597,0.977-2.009"/></g><g transform="translate(343.2365,109.4878)"><path fill-rule="nonzero" fill="#FFF" d="M0,0,5.469,3.699-1.44,8.66,0,0zm11.189-4.761c-0.181-0.239-0.623,0.669-0.505,0.747,1.233,1.062,2.192,1.426,1.66,2.212-0.613,0.906-2.002,1.858-3.526,3.008l-2.119,1.607-6.374-4.312,0.505-2.698c0.425-2.236,0.764-3.672,1.297-4.458,0.451-0.669,1.198-0.163,2.539,0.571,0.195,0.132,0.754-0.693,0.463-0.773-0.983-0.496-2.229-1.282-3.488-2.132-1.692-1.145-1.968-1.33-3.16-2.366-0.209-0.2-0.625,0.667-0.505,0.748,1.86,1.487,2.166,3.242,1.426,7.558l-3.13,18.699c-0.054,0.251,0.313,0.556,0.552,0.373l15.324-10.451c3.06-2.061,4.593-3.145,7.586-1.465,0.12,0.081,0.757-0.694,0.466-0.774-1.023-0.52-2.741-1.626-4.04-2.503-1.692-1.144-3.816-2.583-4.971-3.591"/></g><g transform="translate(381.647,127.9423)"><path fill-rule="nonzero" fill="#FFF" d="m0,0c-0.134-0.202-0.74,0.535-0.64,0.637,1.707,2.188,1.604,3.028-1.53,6.14l-3.438,3.416-8.972-9.028,3.437-3.416c2.964-2.947,3.941-3.381,6.116-1.526,0.103,0.1,0.877-0.535,0.608-0.671-0.906-0.708-2.412-2.156-3.484-3.235-1.438-1.448-3.315-3.335-4.25-4.548-0.135-0.269-0.743,0.537-0.64,0.637,2.241,2.861,2.139,3.433-1.062,6.614l-7.615,7.565c-3.2,3.182-3.84,3.348-6.655,1.055-0.1-0.1-0.874,0.535-0.605,0.669,1.206,0.879,3.081,2.766,4.521,4.214,1.072,1.079,2.476,2.627,3.179,3.538,0.134,0.268,0.774-0.503,0.674-0.603-1.841-2.19-1.402-3.162,1.599-6.143l3.201-3.181,8.971,9.031-3.2,3.181c-3.166,3.147-4.041,3.278-6.184,1.526-0.1-0.103-0.877,0.534-0.674,0.669,1.206,0.876,2.678,2.292,4.119,3.74,1.105,1.113,2.98,3.135,3.649,4.009,0.132,0.271,0.84-0.433,0.672-0.601-2.407-2.83-1.902-3.601,1.13-6.614l7.615-7.568c3.032-3.013,3.738-3.447,6.587-1.055,0.166,0.169,0.874-0.535,0.605-0.669-0.871-0.674-2.846-2.595-3.95-3.706-1.44-1.45-2.847-2.866-3.784-4.077"/></g><g transform="translate(332.5772,190.4423)"><path fill-rule="nonzero" fill="#b58a43" d="m0,0-158.92,0c-0.691,0-1.25,0.559-1.25,1.25s0.559,1.25,1.25,1.25h158.92c0.691,0,1.25-0.559,1.25-1.25s-0.559-1.25-1.25-1.25"/></g><g transform="translate(332.5772,302.9497)"><path fill-rule="nonzero" fill="#b58a43" d="m0,0-158.92,0c-0.691,0-1.25,0.559-1.25,1.25s0.559,1.25,1.25,1.25h158.92c0.691,0,1.25-0.559,1.25-1.25s-0.559-1.25-1.25-1.25"/></g><g transform="translate(197.0758,334.1532)"><path fill-rule="nonzero" fill="#0f284e" d="m0,0-2.22,0c-0.091-0.51-0.12-1.35-0.12-2.76v-2.85h1.32c2.459,0,2.7,0.329,2.97,1.379,0.03,0.061,0.6,0.061,0.57-0.06-0.12-0.389-0.15-1.41-0.15-2.04,0-0.3-0.03-1.23,0.03-1.44,0.06-0.18-0.541-0.239-0.57-0.06-0.181,0.901-0.42,1.321-2.85,1.321h-1.32v-3.15c0-2.851,0.21-3.24,2.34-3.421,0.15,0,0.21-0.599-0.031-0.57-0.689,0.09-2.339,0.121-3.299,0.121-1.29,0-2.55,0-3.511-0.121-0.179-0.06-0.089,0.57,0,0.57,1.741,0.21,2.071,0.63,2.071,3.421v6.779c0,2.851-0.241,3.211-2.52,3.451-0.061,0-0.15,0.63,0.029,0.599,1.68-0.15,4.411-0.179,6.691-0.179,1.62,0,3.09,0.089,3.929,0.089,0.391,0,0.571-0.06,0.63-0.48,0.09-0.51,0.121-1.889,0.21-2.49,0-0.089-0.509-0.119-0.539-0.029-0.301,1.469-0.241,1.92-3.66,1.92"/></g><g transform="translate(206.5253,328.6027)"><path fill-rule="nonzero" fill="#0f284e" d="m0,0c0-4.919,3.149-7.469,6.15-7.469,3.21,0,5.551,1.979,5.551,5.999,0,4.92-3.181,7.53-6.181,7.53-3.211,0-5.52-2.01-5.52-6.06m-2.52-0.96c0,4.111,3.629,7.95,8.55,7.95,4.621,0,8.13-3.569,8.13-7.5,0-4.08-3.6-7.92-8.55-7.92-4.59,0-8.13,3.54-8.13,7.47"/></g><g transform="translate(238.028,325.8122)"><path fill-rule="nonzero" fill="#0f284e" d="m0,0c0-3.059-2.31-5.64-6.33-5.64-3.48,0-6.45,2.19-6.45,5.79v5.281c0,2.849-0.329,3.24-2.28,3.48-0.09,0-0.15,0.599,0.031,0.54,0.928-0.15,2.369-0.12,3.719-0.12,0.961,0,2.46,0.029,3.18,0.12,0.181,0.059,0.181-0.54,0.03-0.54-2.039-0.181-2.22-0.78-2.22-3.48v-4.771c0-3.509,2.28-5.069,4.59-5.069,3.03,0,4.62,1.62,4.62,4.709v5.341c0,2.579-0.329,3.03-2.28,3.27-0.15,0.029-0.15,0.599,0.03,0.54,0.931-0.15,1.62-0.12,2.94-0.12,0.93,0,1.92,0.029,2.61,0.12,0.24,0.03,0.121-0.54,0.061-0.54-2.071-0.181-2.251-0.841-2.251-3.27v-5.641z"/></g><g transform="translate(258.2782,324.4927)"><path fill-rule="nonzero" fill="#0f284e" d="m0,0c0-1.11,0.029-3.15,0.148-4.11,0-0.091-0.358-0.21-0.539-0.029l-11.189,11.369v-7.23c0-2.4,0.21-3.24,2.28-3.421,0.061,0,0.12-0.63-0.06-0.57-0.69,0.091-1.499,0.121-2.43,0.121-1.32,0-2.28,0-3.24-0.121-0.149-0.029-0.09,0.57,0,0.57,1.98,0.21,2.28,0.871,2.28,3.421v7.71c0,1.02-1.89,2.4-2.91,2.52-0.089,0-0.15,0.631,0.03,0.571,0.93-0.151,2.67-0.181,3.96-0.181l10.471-10.83v6.99c0,2.58-0.3,3.241-2.251,3.45-0.152,0.03-0.152,0.631,0.029,0.571,0.901-0.151,1.651-0.151,2.972-0.151,0.959,0,1.979,0.06,2.638,0.151,0.301,0.029,0.152-0.571,0.091-0.571-2.1-0.149-2.28-1.05-2.28-3.45v-6.78z"/></g><g transform="translate(268.3267,334.1825)"><path fill-rule="nonzero" fill="#0f284e" d="m0,0c-0.149-0.72-0.178-1.2-0.178-2.91v-7.589c0-1.651,0.149-2.191,3.359-2.191,2.668,0,5.549,1.831,5.549,5.7,0,4.71-2.399,7.11-6.569,7.11-1.5,0-1.799-0.06-2.161-0.12m-0.808-13.56c-1.321,0-3.12,0-4.05-0.12-0.301-0.03-0.122,0.57-0.032,0.57,1.98,0.21,2.28,0.6,2.28,3.42v6.78c0,2.85-0.3,3.241-2.28,3.451-0.09,0-0.239,0.63,0.061,0.57,0.901-0.15,2.881-0.15,4.231-0.15,0.539,0,2.639,0.089,3.45,0.089,5.4,0,8.339-3.12,8.339-7.14,0-4.11-3.569-7.56-8.639-7.56-0.782,0-2.82,0.09-3.36,0.09"/></g><g transform="translate(292.2357,320.5022)"><path fill-rule="nonzero" fill="#0f284e" d="m0,0c-0.84,0-2.249,0.121-3.928,0.121-2.281,0-5.01,0-6.692-0.121-0.179,0-0.088,0.57,0,0.57,2.28,0.271,2.49,0.57,2.49,3.421v6.779c0,2.851-0.21,3.211-2.49,3.451-0.088,0-0.179,0.63,0,0.599,1.682-0.15,4.321-0.179,6.601-0.179,1.619,0,3.179,0.06,4.561,0.179-0.152-0.479-0.152-1.109-0.152-1.56,0-0.239-0.029-0.899,0-1.049,0-0.06-0.568-0.091-0.568-0.031-0.181,0.99-0.542,1.471-3.45,1.471h-1.951c-0.09-0.51-0.119-1.35-0.119-2.76v-2.76h1.499c2.519,0,2.7,0.06,2.939,1.019,0,0.06,0.571,0.091,0.54-0.059-0.089-0.33-0.12-1.26-0.12-1.771v-1.29c0.061-0.029-0.569-0.06-0.569-0.029-0.21,1.169-0.39,1.26-2.79,1.26h-1.499v-2.97c0-2.88,0.149-3.151,1.169-3.151h1.169c3.45,0,3.54,0.481,3.87,1.951,0,0.029,0.601,0.029,0.601-0.06-0.091-0.57-0.33-2.041-0.481-2.49-0.088-0.451-0.24-0.541-0.63-0.541"/></g><g transform="translate(301.3565,334.1825)"><path fill-rule="nonzero" fill="#0f284e" d="m0,0c-0.151-0.72-0.181-1.2-0.181-2.91v-7.589c0-1.651,0.152-2.191,3.36-2.191,2.671,0,5.552,1.831,5.552,5.7,0,4.71-2.4,7.11-6.57,7.11-1.502,0-1.802-0.06-2.161-0.12m-0.81-13.56c-1.321,0-3.121,0-4.051-0.12-0.3-0.03-0.119,0.57-0.029,0.57,1.98,0.21,2.28,0.6,2.28,3.42v6.78c0,2.85-0.3,3.241-2.28,3.451-0.09,0-0.239,0.63,0.059,0.57,0.9-0.15,2.88-0.15,4.231-0.15,0.539,0,2.639,0.089,3.449,0.089,5.401,0,8.34-3.12,8.34-7.14,0-4.11-3.569-7.56-8.64-7.56-0.779,0-2.82,0.09-3.359,0.09"/></g><g transform="translate(152.912,272.4932)"><path fill-rule="nonzero" fill="#0f284e" d="m0,0-0.007-49.741c0-1.616,0.095-2.193-1.048-2.901-1.118-0.693-2.263-0.808-4.106-1.12,0,0-0.02-0.003-0.034-0.008-0.184-0.046-0.152-0.739,0.034-0.739h40.241c16.973,0,24.112,6.736,24.112,17.241,0,7.766-3.618,12.517-10.779,14.299-0.12,0.034-0.127,0.196,0,0.23,4.563,1.426,8.757,4.728,8.757,12.815,0,10.965-7.407,14.68-23.572,14.68l-38.745,0.001c-0.185,0-0.224-0.695-0.039-0.741,0.015-0.004,0.034-0.007,0.034-0.007,1.844-0.314,2.989-0.427,4.107-1.121,1.142-0.709,1.045-1.275,1.045-2.888m18.882-41.763,0,11.951c0,0.803-0.096,1.399-0.096,1.399s0.699-0.098,1.397-0.098h6.587c5.254,0,11.682,0,11.682-7.275,0-5.386-4.602-7.271-10.798-7.271h-7.471c-0.706,0-1.379-0.107-1.379-0.107s0.078,0.718,0.078,1.401m0,23.709,0,10.328c0,0.799-0.115,1.417-0.115,1.417s0.72-0.114,1.421-0.114h7.788c5.928,0,9.407-0.918,9.407-6.306,0-3.501-2.159-6.624-9.165-6.624h-8.03c-0.701,0-1.394-0.09-1.394-0.09s0.088,0.673,0.088,1.389"/></g><g transform="translate(355.6732,272.4907)"><path fill-rule="nonzero" fill="#0f284e" d="m0,0c0,1.615-0.095,2.181,1.047,2.891,1.118,0.693,2.266,0.807,4.107,1.12,0,0,0.019,0.004,0.034,0.007,0.183,0.047,0.151,0.74-0.034,0.74l-29.681,0.002c-0.185,0-0.222-0.694-0.039-0.74,0.017-0.004,0.037-0.007,0.037-0.007,1.875-0.234,2.744-0.429,3.862-1.121,1.143-0.711,1.045-1.281,1.045-2.892l0.002-29.895c0-6.816-3.906-12.056-11.655-12.056-7.754,0-11.66,5.24-11.66,12.056l0.003,29.888c0,1.612-0.095,2.186,1.047,2.896,1.118,0.695,2.053,0.868,3.863,1.122,0,0,0.019,0.004,0.034,0.007,0.185,0.047,0.151,0.739-0.037,0.739h-28.01c-0.208,0-0.167-0.698,0.009-0.736,0.015-0.004,0.032-0.007,0.032-0.007,1.025-0.064,1.728-0.121,2.359-0.659,0.934-0.794,1.084-1.74,1.084-3.355v-29.387c0-14.165,7.749-26.196,31.276-26.196,23.521,0,31.275,12.031,31.275,26.196v29.387z"/></g><g transform="translate(265.7267,217.9815)"><path fill-rule="nonzero" fill="#0f284e" d="M0,0c0.186,0,0.222,0.696,0.039,0.742-0.015,0.002-0.034,0.005-0.034,0.005-1.844,0.315-2.988,0.43-4.107,1.123-1.142,0.708-1.047,1.282-1.047,2.895v18.877l20.525,30.479c1.125,1.672,1.843,2.544,2.766,3.322,0.156,0.131,0.535,0.383,0.767,0.528,0.844,0.425,1.169,0.524,2.214,0.553,0,0,0.02,0.006,0.034,0.007,0.188,0.025,0.247,0.735,0.032,0.735l-27.683,0.003c-0.227,0-0.181-0.724,0.012-0.743,0.015-0.002,0.034-0.009,0.034-0.009,1.345,0,2.998-0.01,2.727-1.938-0.151-1.872-8.132-13.409-10.971-17.789-0.408-0.629-0.725-1.278-0.862-2.064-0.102,0.774-0.591,1.566-0.92,2.054-3.96,5.9-10.735,15.46-10.931,17.803-0.163,2.001,1.387,1.941,2.73,1.941,0,0,0.02,0.007,0.034,0.009,0.191,0.018,0.261,0.736,0.037,0.736l-29.072-0.003c-0.171,0-0.152-0.666,0.019-0.733,0.015-0.007,0.034-0.008,0.034-0.008,1.243-0.125,1.919-0.039,3.374-0.748,0.171-0.083,0.576-0.354,0.735-0.486,0.921-0.776,1.484-1.494,2.612-3.167l20.498-30.35,0.003-19.006c0-1.614,0.095-2.19-1.047-2.898-1.121-0.693-2.266-0.808-4.107-1.123,0,0-0.019-0.003-0.034-0.005-0.186-0.046-0.151-0.742,0.034-0.742h31.555z"/></g></g></g></svg>
