<!-- Created with Inkscape (http://www.inkscape.org/) -->
<svg xmlns:rdf="http://www.w3.org/1999/02/22-rdf-syntax-ns#" xmlns="http://www.w3.org/2000/svg" xml:space="preserve" version="1.1" xmlns:cc="http://creativecommons.org/ns#" xmlns:dc="http://purl.org/dc/elements/1.1/" viewBox="0 0 355 45"><metadata><rdf:RDF><cc:Work rdf:about=""><dc:format>image/svg+xml</dc:format><dc:type rdf:resource="http://purl.org/dc/dcmitype/StillImage"/><dc:title/></cc:Work></rdf:RDF></metadata><g transform="matrix(1.25,0,0,-1.25,0,45)"><g fill-rule="nonzero" transform="scale(0.1,0.1)"><path fill="#FFF" d="m195.58,11.828-189.2,0c-0.673,3.895-0.6534,9.031,0.1083,13.633,53.274,3.082,64.797,7.664,64.797,43.867v240.73c0,22.535-7.4219,26.14-31.254,26.14h-21.73c-0.9297,6.375-0.8438,10.024,1.2383,12.453,5.4609,6.453,28.098,7.672,67.934,7.672h103.53c137.66,0,207.44-57.957,207.44-172.23,0-112.69-70.156-172.27-202.86-172.27zm125.46,320.81c-1.773,0-3.199-1.426-3.199-3.199v-256.55c0-34.219,13.937-39.394,61.851-39.394,72.2,0,146,16.738,146,140.89,0,102.05-54.011,158.25-152.12,158.25h-52.527"/><path fill="#FFF" d="m814.25,11.828-162.7,0c-0.68,3.875-0.641,8.9922,0.102,13.562,38.164,1.1602,51.972,3.7774,56.367,10.625,2.703,4.1992,1.273,9.0039-0.473,13.125l-32.15,77.02c-0.493,1.203-1.649,1.965-2.95,1.965h-131.57c-1.344,0-2.539-0.828-2.992-2.062l-20.91-55.599c-7.234-18.516-9.89-28.488-5.437-35,4.02-5.8789,12.797-7.082,24.734-7.082h41.297c1.215-6.3281,0.824-10.84-1.219-13.418-1.648-2.1015-4.597-3.1328-8.968-3.1328h-143.3c-0.695,3.9336-0.641,9.1797,0.125,13.816,38.348,5.1289,44.035,9.5977,57.906,42.441l100.99,239.18c16.921,39.543,22.757,45.504,44.464,45.504h17.157c1.808-10.535,5.586-19.507,13.09-35.89l117.8-268.72c6.188-14.602,13.196-19.777,40.161-19.777h9.074c1.051-6.4648,0.578-11.008-1.446-13.477-1.668-2.0585-4.66-3.0742-9.152-3.0742zm-46.39,276.94h-0.039c-1.301,0-2.476-0.805-2.949-2.004l-53.05-132.61c-0.395-0.984-0.27-2.097,0.309-2.988,0.593-0.891,1.586-1.399,2.66-1.399h108.62c1.074,0,2.058,0.532,2.66,1.418,0.598,0.887,0.699,2.024,0.289,3.008l-55.582,132.61c-0.492,1.171-1.648,1.957-2.93,1.957"/><path fill="#FFF" d="m1018.8,11.828-152.68,0c-0.969,3.8946-0.906,9.1992,0.203,13.856,39.543,6.5742,51.129,12.305,51.129,35.477v243.78c0,21.239-7.422,24.618-31.254,24.618h-21.851c-0.906,5.257-0.371,9.031,1.605,11.5,2.664,3.339,8.453,5.054,17.199,5.054h143.34c0.66-3.832,0.64-9.648-0.06-13.644-44.105-3.407-51.628-14.332-51.628-37.196v-242.28c0-21.191,8.761-24.617,29.728-24.617h24.97c1.44-6.8867,1.25-11.211-0.54-13.496-1.61-2.0586-4.93-3.0547-10.17-3.0547"/><path fill="#FFF" d="M1353.2,10.344,1213.4,287.01c-0.53,1.093-1.65,1.754-2.85,1.754-0.2,0-0.43-0.02-0.64-0.059-1.4-0.293-2.45-1.465-2.55-2.91l-16.4-228.97c-0.64-8.4766-1.15-15.207,3.42-20.137,5.82-6.2695,18.53-8.2891,52.32-8.2891h24.98c1.38-6.7695,1.14-11.223-0.72-13.574-1.57-2.0234-4.69-2.9883-9.49-2.9883h-164.66c-0.74,4.5274-0.74,9.1094,0.02,13.633,54.6,3.3008,61.12,14.09,62.77,37.516l20.92,239.67c0.54,5.886,0.74,12.035-3.36,16.691-5.67,6.418-18.67,9.121-49.28,10.152-0.87,4.785-0.29,8.52,1.75,11.16,2.8,3.629,8.56,5.465,17.1,5.465h101.06l127.14-243.59c0.58-1.05,1.65-1.707,2.84-1.707h0.07c1.19,0.02,2.29,0.711,2.82,1.809l116.95,243.48h116.38c1.06-4.515,1.04-9.097-0.02-13.613-26.85-1.898-40.28-5.551-46.16-12.523-4.31-5.114-4.07-11.387-3.48-16.875l24.46-248.88c1.75-18.875,12.85-20.734,49.2-25.48,0.59-7.6953-0.02-11.883-2.1-14.168-1.65-1.8359-4.67-2.7422-9.23-2.7422h-177.59c-1.05,4.5782-1.03,9.0508,0.02,13.613l25.26,1.4219c24.44,1.4375,39,3.793,45.99,12.004,5.45,6.4141,5.34,15.637,4.41,24.668l-22.91,222.36c-0.15,1.422-1.21,2.579-2.64,2.829-0.19,0.039-0.37,0.039-0.54,0.039-1.22,0-2.35-0.7-2.89-1.817l-122.5-257.06c-8.29-16.562-11.66-19.25-20.18-19.551"/><path fill="#FFF" d="m1956.1,11.816-243.52,0c-0.54,4.2695-0.83,8.9453-0.09,13.672,46.59,3.0859,61.2,10.215,61.2,45.891v233.57c0,21.196-9.2,24.614-31.24,24.614h-21.85c-0.9,5.261-0.38,9.05,1.6,11.515,2.66,3.36,8.46,5.055,17.2,5.055h156.08c0.64-3.828,0.62-9.653-0.06-13.649-51.25-3.046-64.34-8.183-64.34-43.836v-225.43c0-22.082,14.89-24.629,26.12-24.629h32.65c39.98,0,45.64,4.2149,67.16,50.293l13.47,29.812c4.3-0.058,9.7-0.847,12.03-4.101,1.9-2.715,1.81-7.11-0.31-13.074-12.2-34.864-20.3-62.668-26.1-89.7"/><path fill="#FFF" d="m2314.7,11.836-276.48,0c-1.01,4.5313-0.99,9.0899,0.04,13.606,53,3.125,64.47,7.6524,64.47,43.894v235.61c0,21.246-7.31,24.641-30.74,24.641h-21.68c-0.6,5.762,0.08,9.34,2.14,11.754,2.73,3.18,8.61,4.781,17.5,4.781h239.8c1.43-20.141,4.18-42.941,7.97-66.16,1.16-7.18,0.39-12.402-2.27-15.543-2.19-2.559-5.85-3.871-10.91-3.871-0.35,0-0.72,0-1.1,0.023l-6.02,20.809c-8.87,31.848-20.67,41.566-50.49,41.566h-81.6c-1.77,0-3.21-1.437-3.21-3.203v-131.08c0-1.765,1.44-3.199,3.21-3.199h53.56c17.54,0,21.4,6.844,23.04,21.199l3.19,23.18h3.33c4.62,0,7.43-0.793,9.09-2.559,2.13-2.269,2.94-6.636,2.52-13.398-1.52-31.754-1.56-65.731-0.13-98.485-1.75-0.476-3.76-0.742-5.78-0.742-2.15,0-4.14,0.293-5.91,0.852-6.57,38.347-13.5,45.254-29.35,45.254h-53.56c-1.77,0-3.21-1.438-3.21-3.203v-89.758c0-20.203,6.14-29.234,42.47-29.234h43.86c40.01,0,45.65,4.2461,67.16,50.312l13.45,29.793c4.16-0.059,9.38-0.852,11.73-4.121,1.99-2.766,1.99-7.18,0-13.106-11.99-34.187-20.31-62.754-26.09-89.609"/><path fill="#FFF" d="m2774.2,3.6719c-48.39,0-78.27,11.004-114.19,42.07-19.34,16.973-36.32,37.531-47.76,57.805-13.3,23.887-15.45,26.101-47.68,26.101h-34.18c-1.76,0-3.21-1.445-3.21-3.203v-74.972c0-17.918,7.71-23.082,34.33-23.082h23.09c0.55-7.414-0.11-11.469-2.14-13.715-1.74-1.9219-4.91-2.8399-9.73-2.8399h-157.92c-0.46,3.4063-0.83,8.5821-0.06,13.641,43.29,3.2031,55.11,9.2304,55.11,42.324v235.63c0,22.371-9.64,26.136-31.27,26.136h-21.93c-1.03,5.067-0.58,8.856,1.32,11.555,2.61,3.684,8.43,5.899,17.26,6.551,24.39,2.012,54.21,2.012,126.27,2.012,93.16,0,148.79-42.262,148.79-113.06,0-40.836-24.38-74.512-66.89-92.433-1.01-0.411-1.74-1.336-1.93-2.403-0.18-1.062,0.19-2.156,0.99-2.906,0.4-0.332,38.53-35.41,57.78-51.113,66.29-53.207,90.09-59.164,133.56-59.375,0.75-4.6289-0.11-8.4101-2.53-11.555-6.77-8.7304-25.98-13.164-57.08-13.164zm-243.8,322.86c-1.76,0-3.21-1.441-3.21-3.203v-167.29c0-1.758,1.45-3.191,3.21-3.191h24.49c47.8,0,94.5,6.187,94.5,80.199,0,62.914-33.24,93.488-101.62,93.488h-17.37"/><path fill="#0f315a" d="m40.039,333.01-24.484,0c-3.5742,21.926-1.5313,26.515,71.906,26.515h103.54c146.89,0,210.64-66.308,210.64-175.44,0-105.06-60.18-175.45-206.05-175.45h-191.76c-1.5352,5.0977-1.5352,13.262,0,19.883,54.57,3.0664,64.258,6.6407,64.258,40.82v240.73c0,19.875-5.0976,22.949-28.047,22.949zm317.74-158.62c0,97.929-51.008,155.05-148.93,155.05h-52.527v-256.55c0-31.113,11.223-36.191,58.652-36.191,87.211,0,142.81,28.027,142.81,137.69"/><path fill="#0f315a" d="M647.46,355.96c1.54-11.23,5.1-19.9,13.27-37.74l117.82-268.79c5.61-13.262,11.22-17.852,37.22-17.852h11.742c3.054-14.785,0-22.949-13.266-22.949h-165.25c-1.535,5.0977-1.535,13.262,0,19.883,55.59,1.543,61.203,6.1328,55.59,19.395l-32.133,77.012h-131.58l-20.91-55.586c-11.72-30.096-11.72-37.752,16.32-37.752h43.856c3.574-14.785,0-22.949-12.743-22.949h-145.87c-1.523,5.0977-1.523,13.262,0,19.883,39.278,5.1172,43.86,8.1836,57.637,40.82l100.97,239.18c16.836,39.277,23.468,47.441,47.433,47.441h19.891zm13.262-202.99-55.594,132.6-53.039-132.6,108.63,0"/><path fill="#0f315a" d="m1029,349.32c1.54-4.59,1.54-14.785,0-19.882-44.37-3.067-50.999-12.754-50.999-34.168v-242.26c0-17.852,5.105-21.426,26.519-21.426h27.54c3.58-14.785,2.04-22.949-13.26-22.949h-155.04c-2.043,5.0977-2.043,13.262,0,19.883,40.789,6.6407,50.488,11.738,50.488,32.656v243.79c0,18.367-4.594,21.414-28.059,21.414h-24.472c-3.067,13.262,0,22.949,21.418,22.949h145.86"/><path fill="#0f315a" d="m1616.5,349.32c2.06-6.621,2.06-13.261,0-19.882-47.42-3.067-50.48-11.219-48.94-26.016l24.47-248.89c1.53-16.309,9.69-17.832,48.96-22.949,1.53-14.785,0-22.949-14.27-22.949h-180.04c-2.03,6.6406-2.03,13.262,0,19.883l27.56,1.543c42.83,2.5391,49.96,8.1641,47.4,33.144l-23.1,222.37-122.4-257.05c-9.18-18.359-13.27-21.406-25-21.406l-140.8,278.46-16.3-228.99c-1.53-19.883-1.53-25,52.53-25h27.54c3.58-14.785,1.54-22.949-12.75-22.949h-167.28c-1.54,6.6406-1.54,13.262,0,19.883,56.09,3.0664,60.69,13.262,62.21,34.688l20.92,239.71c1.53,16.32-1.53,21.934-52.03,23.457-3.05,11.731,0,22.949,21.43,22.949h103.02l128.02-245.32,117.82,245.32h120.85"/><path fill="#0f315a" d="m1898,349.32c1.52-4.59,1.52-14.785,0-19.882-53.56-3.067-63.75-7.657-63.75-40.801v-225.43c0-16.816,8.67-21.426,22.94-21.426h32.65c37.75,0,42.82,2.5586,64.25,48.457l14.28,31.621c14.8,0.508,22.44-5.605,16.83-21.425-10.7-30.586-19.88-60.176-26.52-91.797h-248.88c-1.02,6.6406-1.53,13.262,0,19.883,49.47,3.0664,60.7,9.7071,60.7,42.852v233.59c0,18.367-6.65,21.414-28.07,21.414h-24.47c-3.05,13.262,0,22.949,21.43,22.949h158.61"/><path fill="#0f315a" d="m2312.7,349.32c1.52-22.949,4.57-46.914,8.14-68.847,2.56-15.821-3.57-24.481-19.88-22.95l-6.64,22.95c-8.67,31.113-19.38,39.277-47.42,39.277h-81.61v-131.08h53.56c15.29,0,18.36,5.105,19.88,18.367l3.58,26.008h6.11c10.2,0,15.82-3.574,14.78-19.375-1.52-32.141-1.52-67.34,0-100.48-4.58-2.032-12.22-2.539-17.83,0-6.64,39.785-13.26,44.375-26.52,44.375h-53.56v-89.766c0-18.359,4.6-26.016,39.28-26.016h43.85c37.75,0,42.85,2.5586,64.28,48.457l14.27,31.621c14.79,0.508,21.93-6.113,16.82-21.425-10.19-29.063-19.89-60.176-26.52-91.797h-281.53c-2.03,6.6406-2.03,13.262,0,19.883,54.07,3.0664,63.75,6.6407,63.75,40.82v235.62c0,18.367-4.59,21.414-27.54,21.414h-24.47c-2.03,13.262,0,22.949,22.44,22.949h242.78"/><path fill="#0f315a" d="m2438.6,326.37-24.47,0c-3.57,13.262,0,22.949,20.9,24.484,24.49,2.032,55.1,2.032,126.5,2.032,97.91,0,151.98-46.407,151.98-116.27,0-42.844-26.53-77.535-68.85-95.367,0,0,38.24-35.195,57.64-51.016,67.32-54.062,89.76-58.652,134.12-58.652,4.6-17.852-8.15-31.113-62.21-31.113-47.44,0-78.56,10.215-116.29,42.852-16.83,14.785-35.19,35.176-48.46,58.653-12.75,22.949-13.77,24.472-44.88,24.472h-34.18v-74.961c0-14.785,4.61-19.902,31.13-19.902h26c1.52-14.785,0-22.949-14.79-22.949h-160.66c-1.01,5.6055-1.52,13.262,0,19.883,44.37,3.0664,54.59,8.1836,54.59,39.277v235.63c0,19.902-7.15,22.949-28.07,22.949zm116.29-170.34c50.49,0,91.29,8.164,91.29,77.008,0,68.855-40.8,90.281-98.42,90.281h-17.36v-167.29h24.49"/></g></g></svg>
