<?xml version="1.0" encoding="UTF-8"?>
<!-- Created with Inkscape (http://www.inkscape.org/) -->
<svg width="590.37mm" height="32.722mm" version="1.1" viewBox="0 0 590.37 32.722" xmlns="http://www.w3.org/2000/svg">
 <g transform="translate(73.437 -205.98)">
  <path stroke="none" fill="#ECEFF4" d="m-73.437 223.67v-14.993h2.8073l0.1913 13.803 21.824-13.833 4.2816 0.20673-2.4694 1.6215c-1.3582 0.89183-6.2637 4.1168-10.901 7.1665l-8.4317 5.545 22.861 15.3-5.1361 0.20772-22.204-14.871v14.84h-2.8222zm70.908 0v-14.993h3.175v29.986h-3.175zm57.503 1.4111v-13.582h-13.406v-2.8222h29.986v2.8222h-13.406v27.164h-3.175zm66.675 0v-13.582h-13.406v-2.8222h29.986v2.8222h-13.406v27.164h-3.175zm68.086 7.3084v-6.2736l-6.8792-8.4476c-3.7835-4.6462-6.8792-8.57-6.8792-8.7195 0-0.14952 0.77587-0.27184 1.7242-0.27184 1.7158 0 1.7342 0.0125 3.7836 2.5576 1.1327 1.4067 3.8207 4.7192 5.9734 7.3611l3.914 4.8035 11.905-14.722h1.6957c0.93266 0 1.6957 0.13538 1.6957 0.30084s-3.0913 4.0945-6.8695 8.7312l-6.8695 8.4304-0.01 6.2618-0.01 6.2618h-3.175zm58.914-8.7195v-14.993h2.8222v12.7h26.458v-12.7h2.8222v29.986h-2.8222v-14.464h-26.458v14.464h-2.8222zm75.153 11.042c10.068-19.334 15.036-28.644 15.334-28.734 0.19403-0.0584 3.0108 5.0096 6.2595 11.262 3.2487 6.2526 7.0979 13.639 8.5538 16.414l2.6471 5.0455-3.6148-0.21319-6.8879-13.178c-5.7954-11.088-6.9475-13.074-7.2636-12.524-0.20662 0.36007-3.3314 6.2903-6.944 13.178l-6.5684 12.524-3.5916 0.21144zm73.979-10.767c-3.2524-8.1062-5.9115-14.866-5.909-15.023 4e-3 -0.15615 0.75184-0.23552 1.6653-0.17638l1.6608 0.10752 5.3066 13.313c2.9186 7.3221 5.386 13.312 5.483 13.312 0.097-7e-4 2.4783-6.031 5.2917-13.401l5.1153-13.4 3.9396-9e-5 5.0387 13.141c2.7712 7.2275 5.1483 13.261 5.2822 13.408 0.13395 0.14689 2.6378-5.7269 5.564-13.053l5.3204-13.32 1.6269-0.10752c0.97261-0.0643 1.6268 0.0419 1.6268 0.26417 0 0.20444-2.6382 6.9668-5.8626 15.028l-5.8626 14.656-4.5828-0.20672-4.9615-12.788c-2.7288-7.0335-5.0523-12.788-5.1633-12.787-0.11102 7e-4 -2.4247 5.7554-5.1414 12.788l-4.9396 12.787-4.5847 0.1966zm88.993-0.27472v-14.993h2.8222v6.8792c0 3.7835 0.0638 6.8792 0.14178 6.8792 0.078 0 5.029-3.0956 11.002-6.8792l10.86-6.8792h2.0505c1.1278 0 2.0506 0.0827 2.0506 0.18384 0 0.10112-2.0241 1.5037-4.4979 3.1169-2.4738 1.6132-7.3394 4.7952-10.812 7.0712l-6.3145 4.1381 22.86 15.3-5.0783 0.20656-22.262-14.852v14.822h-2.8222z"/>
 </g>
</svg>
