<svg version="1.1" id="Layer_1" xmlns="http://www.w3.org/2000/svg" x="0" y="0" viewBox="112 159 1184.1 244" xml:space="preserve"><style type="text/css">.st0{fill:#221f1f}.st1{fill:#d33232}</style><path class="st0" d="M920.2 207.5v147.7h-29v-63.8h-66.1v63.8h-28.8V207.5h28.8v58.2h66.1v-58.2zM1026 337.5v-57.8c0-11.8-.2-22-13.1-29.9-9.6-5.7-22.2-7-32.7-7-7 0-32.9 0-43.4 19-3.5 6.3-3.9 10.9-4.4 16.4l26.8 1.5c0-3.1-.2-6.1 2.6-9.6 2.6-3.5 8.5-7 19.4-7 18.1 0 18.5 11.1 18.5 16.6-9.6 3-11.3 3.5-33.8 8.1-10.5 2-27.3 5.5-35.1 21.2-2.2 4.4-3.5 9.4-3.5 14.8 0 18.8 14.8 34 39.5 34 15 0 26.6-6.3 32.3-11.1 0 1.5.4 5.9.7 8.5h31c-4.8-6.6-4.8-9.4-4.8-17.7zm-26.1-24.6c0 3.3 0 6.5-1.5 9.8-2.8 6.5-12.2 12.7-25.5 12.7-10.5 0-17.7-4.4-17.7-12.9 0-11.6 12.4-13.7 21.8-15.1 11.8-2 17.7-3.9 22.9-6.5v12zM1156.7 246.1h27.3l-32.7 109.1h-26l-19.6-69.6-21 69.6H1059l-31.6-109.1h27.2l19 74.6 20.3-74.6h23.3l20.1 74.6zM1216 201.2v86.6l42.6-41.7h33.3l-41.6 41.7 45.8 67.4h-31.9l-32.9-48.9-15.3 15.1v33.8h-25.9v-154zM185.7 265.5l53.9 89.7h-32.9L165.6 289l-25 28.8v37.4H112V207.5h28.6v70.6l61.7-70.6h34zM247 246.1h26v109.1h-26zM511.9 246.1l-27.7 95.1-6.1 20.5c-7.4 22.9-15.5 31-35.8 31-8.5 0-12.6-.9-15.7-1.3v-22.9c2.4.4 4.4.7 7 .7 2 0 7.6 0 11.8-2.8 3.1-2 6.1-6.8 6.1-8.9L412 246.1h28.1l24.2 81.4 20.7-81.4h26.9zM355.2 264.9v56.7c.1 10.5.5 15.9 1.4 18.3 4.1 12.6 19.2 16.1 33.2 16.1 2 0 2.6 0 5.9-.2v-24c-2.4 0-9.2-.7-12-4.1-2.4-2.8-2.3-3.7-2.3-16.6v-46.2h23.3v-18.8h-23.3v-38.6h-26.2v38.6h-31.4v-38.6h-26.2v38.6h-15.9v18.8h15.9v56.7c.1 10.5.5 15.9 1.4 18.3 4.1 12.6 19.2 16.1 33.2 16.1 2 0 2.6 0 5.9-.2v-24c-2.4 0-9.2-.7-12-4.1-2.4-2.8-2.3-3.7-2.3-16.6v-46.2h31.4z"/><g><path class="st1" d="M736.4 254.6l-29.1 100.6h-29.1l29.1-100.6zM701.8 206.8L644.9 403h-60.1l8-27.7h32.7l.5-1.9 48.3-166.6z"/><path class="st1" d="M668.8 159L612 355.2h-60.2L608.7 159z"/></g></svg>