<?xml version="1.0" encoding="UTF-8" standalone="no"?>
<!-- Created with Inkscape (http://www.inkscape.org/) -->

<svg
   xmlns:dc="http://purl.org/dc/elements/1.1/"
   xmlns:cc="http://creativecommons.org/ns#"
   xmlns:rdf="http://www.w3.org/1999/02/22-rdf-syntax-ns#"
   xmlns:svg="http://www.w3.org/2000/svg"
   xmlns="http://www.w3.org/2000/svg"
   version="1.1"
   width="972.57501"
   height="489.20001"
   id="svg2"
   xml:space="preserve"><metadata
     id="metadata8"><rdf:RDF><cc:Work
         rdf:about=""><dc:format>image/svg+xml</dc:format><dc:type
           rdf:resource="http://purl.org/dc/dcmitype/StillImage" /><dc:title></dc:title></cc:Work></rdf:RDF></metadata><defs
     id="defs6" /><g
     transform="matrix(1.25,0,0,-1.25,0,489.2)"
     id="g10"><g
       transform="scale(0.1,0.1)"
       id="g12"><path
         d="M 1537.82,1377.48 254.105,1931.66 25.6992,1269.89 444.656,1557.36 1537.82,1377.48"
         id="path14"
         style="fill:#1e3058;fill-opacity:1;fill-rule:evenodd;stroke:none" /><path
         d="M 269.371,1897.09 75.4141,1335.17 430.113,1578.55 c 5.469,3.74 12.196,5.26 18.723,4.17 L 1335.56,1436.81 269.371,1897.09 z M 25.6992,1244.18 c -5.4961,0 -10.9804,1.76 -15.5742,5.26 -8.82031,6.72 -12.33203,18.35 -8.71875,28.83 L 229.82,1940.04 c 2.332,6.76 7.375,12.25 13.914,15.13 6.551,2.88 13.993,2.93 20.567,0.08 L 1548.01,1401.07 c 11.92,-5.14 18.12,-18.37 14.47,-30.81 -3.67,-12.46 -16,-20.13 -28.84,-18.14 L 450.68,1530.33 40.2422,1248.69 c -4.3906,-3.01 -9.4727,-4.51 -14.543,-4.51"
         id="path16"
         style="fill:#1e3058;fill-opacity:1;fill-rule:nonzero;stroke:none" /><path
         d="m 5883.14,2933.04 c 0,29.16 0,49.98 20.82,58.31 29.14,12.49 49.95,16.65 83.25,24.98 l 0,4.17 c -603.6,0 -603.6,0 -603.6,0 -4.16,0 -4.16,-4.17 -4.16,-4.17 l 4.16,0 c 33.3,-8.33 49.95,-12.49 79.09,-24.98 20.82,-8.33 20.82,-29.15 20.82,-58.31 0,-545.55 0,-545.55 0,-545.55 0,-124.94 -74.94,-220.73 -233.12,-220.73 -158.19,0 -237.28,95.79 -237.28,220.73 0,545.55 0,545.55 0,545.55 0,29.16 4.16,49.98 24.98,58.31 29.13,12.49 45.79,16.65 79.09,24.98 l 4.16,0 c 0,0 0,4.17 -4.16,4.17 -570.31,0 -570.31,0 -570.31,0 l 0,-4.17 c 20.82,-4.16 33.31,-12.49 49.96,-20.82 16.65,-16.66 20.81,-33.31 20.81,-62.47 0,-537.22 0,-537.22 0,-537.22 0,-258.21 158.19,-478.93 632.75,-478.93 474.56,0 632.74,220.72 632.74,478.93 l 0,537.22"
         id="path18"
         style="fill:#1e3058;fill-opacity:1;fill-rule:evenodd;stroke:none" /><path
         d="m 2193.66,2816.5 c 183.14,0 183.14,0 183.14,0 120.71,0 187.31,-16.66 187.31,-116.57 0,-62.45 -41.63,-120.74 -183.15,-120.74 -187.3,0 -187.3,0 -187.3,0 l 0,237.31 z m 0,-403.84 c 158.17,0 158.17,0 158.17,0 104.06,0 237.25,0 237.25,-133.23 0,-99.91 -95.73,-133.22 -220.6,-133.22 -174.82,0 -174.82,0 -174.82,0 l 0,266.45 z m -382.94,520.41 c 0,-907.6 0,-907.6 0,-907.6 0,-29.14 0,-49.96 -24.98,-58.28 -29.13,-12.49 -45.78,-16.65 -79.08,-24.98 l 0,0 c 0,0 -4.16,-4.16 0,-4.16 4.16,0 811.66,0 811.66,0 345.48,0 487,120.73 487,316.4 0,141.56 -70.76,228.99 -216.44,262.29 l 0,0 c 91.57,24.98 174.81,87.43 174.81,237.31 0,199.84 -149.84,266.45 -474.51,266.45 -782.52,0 -782.52,0 -782.52,0 l 0,-4.16 c 33.3,-8.33 49.95,-12.5 79.08,-24.98 24.98,-8.33 24.98,-29.15 24.98,-58.29"
         id="path20"
         style="fill:#1e3058;fill-opacity:1;fill-rule:evenodd;stroke:none" /><path
         d="m 3937.85,3016.34 c 20.82,0 54.13,-4.17 49.96,-45.8 0,-37.47 -212.33,-308.08 -237.31,-349.72 -74.95,104.09 -237.32,308.09 -241.48,349.72 0,33.3 29.14,45.8 58.29,45.8 l 0,0 c 4.16,0 4.16,4.16 0,4.16 -587.05,0 -587.05,0 -587.05,0 -4.17,0 -4.17,-4.16 0,-4.16 l 0,0 c 24.98,-4.17 37.47,-8.33 66.61,-20.82 4.17,0 12.49,-4.16 12.49,-8.33 20.82,-12.49 33.31,-29.14 58.29,-62.45 412.18,-553.71 412.18,-553.71 412.18,-553.71 0,-345.56 0,-345.56 0,-345.56 0,-29.14 0,-49.96 -20.81,-58.28 -29.15,-12.49 -49.97,-16.65 -83.27,-24.98 l 0,-4.16 c 637.01,0 637.01,0 637.01,0 4.16,0 4.16,4.16 4.16,4.16 -4.16,0 -4.16,0 -4.16,0 -33.31,8.33 -49.96,12.49 -79.11,24.98 -20.82,8.32 -24.98,29.14 -24.98,58.28 0,345.56 0,345.56 0,345.56 416.35,553.71 416.35,553.71 416.35,553.71 20.81,33.31 37.47,49.96 54.12,62.45 4.17,4.17 12.49,8.33 16.66,8.33 16.65,12.49 24.98,16.65 45.79,20.82 l 0,0 c 4.17,0 4.17,4.16 0,4.16 -553.74,0 -553.74,0 -553.74,0 l 0,-4.16"
         id="path22"
         style="fill:#1e3058;fill-opacity:1;fill-rule:evenodd;stroke:none" /><path
         d="m 1829.71,1600.74 8.22,-4.12 205.58,-250.8 205.57,250.8 8.22,4.12 69.9,0 4.11,-4.12 0,-567.38 -4.11,-4.11 -74.01,0 -4.11,4.11 0,448.16 -201.46,-246.69 -8.22,0 -201.47,246.69 0,-448.16 -4.11,-4.11 -74,0 -4.12,4.11 0,567.38 4.12,4.12 69.89,0"
         id="path24"
         style="fill:#1e3058;fill-opacity:1;fill-rule:nonzero;stroke:none" /><path
         d="m 2582.15,1243.04 189.13,0 -94.57,242.58 -94.56,-242.58 z m 131.56,357.7 4.11,-4.12 230.25,-567.38 -4.11,-4.11 -82.23,0 -4.12,4.11 -53.44,131.57 -254.92,0 -53.44,-131.57 -4.11,-4.11 -82.24,0 -4.11,4.11 230.25,567.38 4.11,4.12 74,0"
         id="path26"
         style="fill:#1e3058;fill-opacity:1;fill-rule:nonzero;stroke:none" /><path
         d="m 3478.48,1460.95 c -53.44,49.34 -131.56,65.78 -201.46,65.78 -127.45,0 -217.91,-94.56 -217.91,-213.8 0,-123.34 94.57,-213.8 222.02,-213.8 41.12,0 86.34,8.23 127.46,28.78 l 0,139.8 -111.01,0 -4.11,4.11 0,74 4.11,4.12 189.13,0 4.11,-4.12 0,-267.24 c -61.67,-45.23 -135.68,-65.78 -209.69,-65.78 -176.79,0 -316.58,131.56 -316.58,300.13 0,164.47 135.68,300.14 312.47,300.14 78.12,0 152.13,-12.33 205.57,-53.45 l 0,-94.56 -4.11,-4.11"
         id="path28"
         style="fill:#1e3058;fill-opacity:1;fill-rule:nonzero;stroke:none" /><path
         d="m 3692.32,1600.74 4.11,-4.12 0,-567.38 -4.11,-4.11 -74,0 -4.11,4.11 0,567.38 4.11,4.12 74,0"
         id="path30"
         style="fill:#1e3058;fill-opacity:1;fill-rule:nonzero;stroke:none" /><path
         d="m 4300.84,1452.73 c -53.46,45.22 -123.35,74 -193.25,74 -115.12,0 -209.68,-94.56 -209.68,-213.8 0,-119.23 94.56,-213.8 209.68,-213.8 69.9,0 139.79,28.78 193.25,74.02 l 4.11,-4.11 0,-94.57 c -53.46,-38.65 -119.24,-61.67 -197.36,-61.67 -168.57,0 -304.25,135.67 -304.25,300.13 0,164.47 135.68,300.14 304.25,300.14 78.12,0 143.9,-23.02 197.36,-61.67 l 0,-94.56 -4.11,-4.11"
         id="path32"
         style="fill:#1e3058;fill-opacity:1;fill-rule:nonzero;stroke:none" /><path
         d="m 4876.48,1452.73 c -53.45,45.22 -123.34,74 -193.24,74 -115.12,0 -209.68,-94.56 -209.68,-213.8 0,-119.23 94.56,-213.8 209.68,-213.8 69.9,0 139.79,28.78 193.24,74.02 l 4.11,-4.11 0,-94.57 c -53.44,-38.65 -119.23,-61.67 -197.35,-61.67 -168.57,0 -304.25,135.67 -304.25,300.13 0,164.47 135.68,300.14 304.25,300.14 78.12,0 143.91,-23.02 197.35,-61.67 l 0,-94.56 -4.11,-4.11"
         id="path34"
         style="fill:#1e3058;fill-opacity:1;fill-rule:nonzero;stroke:none" /><path
         d="m 5288.49,1600.74 3.29,-3.3 0,-490.08 268.07,0 3.29,-4.11 0,-74.83 -3.29,-3.29 -347.01,0 -3.29,3.29 0,569.02 3.29,3.3 75.65,0"
         id="path36"
         style="fill:#1e3058;fill-opacity:1;fill-rule:nonzero;stroke:none" /><path
         d="m 5772.85,1243.04 189.12,0 -94.56,242.58 -94.56,-242.58 z m 131.56,357.7 4.11,-4.12 230.25,-567.38 -4.11,-4.11 -82.23,0 -4.11,4.11 -53.45,131.57 -254.91,0 -53.46,-131.57 -4.11,-4.11 -82.23,0 -4.11,4.11 230.25,567.38 4.11,4.12 74,0"
         id="path38"
         style="fill:#1e3058;fill-opacity:1;fill-rule:nonzero;stroke:none" /><path
         d="m 6295.04,1107.36 119.22,0 c 61.67,0 98.68,37 98.68,94.57 0,53.44 -37.01,94.56 -98.68,94.56 l -119.22,0 0,-189.13 z m 0,271.35 57.55,0 c 61.67,0 90.45,20.56 90.45,74.02 0,45.22 -28.78,65.78 -90.45,65.78 l -57.55,0 0,-139.8 z m 57.55,222.03 c 115.12,0 185.01,-57.56 185.01,-148.01 0,-45.24 -20.55,-74.02 -49.33,-94.57 82.23,-28.78 119.24,-86.34 119.24,-156.23 0,-98.68 -82.24,-176.8 -193.25,-176.8 l -197.35,0 -4.11,4.11 0,567.38 4.11,4.12 135.68,0"
         id="path40"
         style="fill:#1e3058;fill-opacity:1;fill-rule:nonzero;stroke:none" /><path
         d="m 6242.74,2536.09 1283.71,-554.18 228.4,661.78 -418.95,-287.48 -1093.16,179.88"
         id="path42"
         style="fill:#1e3058;fill-opacity:1;fill-rule:evenodd;stroke:none" /><path
         d="m 7511.19,2016.48 193.95,561.92 -354.7,-243.38 c -5.47,-3.74 -12.19,-5.26 -18.72,-4.17 L 6445,2476.76 7511.19,2016.48 z m 243.67,652.91 c 5.49,0 10.98,-1.76 15.57,-5.26 8.82,-6.72 12.33,-18.35 8.72,-28.82 l -228.41,-661.78 c -2.34,-6.76 -7.38,-12.25 -13.92,-15.13 -6.55,-2.88 -13.99,-2.93 -20.57,-0.08 L 6232.54,2512.5 c -11.92,5.14 -18.11,18.37 -14.46,30.81 3.66,12.47 16,20.13 28.83,18.14 l 1082.97,-178.21 410.43,281.64 c 4.4,3.01 9.48,4.51 14.55,4.51"
         id="path44"
         style="fill:#1e3058;fill-opacity:1;fill-rule:nonzero;stroke:none" /><path
         d="m 7377.1,2707.91 c 0,0 -356.33,619.94 -1479.87,923.2 -1123.55,303.25 -2570.74,443.5 -4082.37,0 C 303.227,3187.61 253.773,2406.94 253.773,2406.94 c 0,0 11.602,-42.11 50.969,-11.49 0,0 130.301,732.33 1572.028,1125.84 1496.17,408.37 3157.97,182.15 3925.53,-100.54 897.64,-330.59 1183.68,-795.27 1183.68,-795.27 l 281.41,-101.6 109.71,184.03"
         id="path46"
         style="fill:#1e3058;fill-opacity:1;fill-rule:nonzero;stroke:none" /><path
         d="m 403.453,1205.66 c 0,0 356.328,-619.941 1479.877,-923.199 1123.55,-303.2501 2570.73,-443.5 4082.37,0 1511.63,443.5 1561.08,1224.169 1561.08,1224.169 0,0 -11.6,42.11 -50.97,11.49 0,0 -130.3,-732.331 -1572.03,-1125.839 C 4407.62,-16.0898 2745.82,210.129 1978.26,492.82 1080.62,823.41 794.578,1288.09 794.578,1288.09 l -281.414,101.6 -109.711,-184.03"
         id="path48"
         style="fill:#1e3058;fill-opacity:1;fill-rule:nonzero;stroke:none" /></g></g></svg>