<!-- Created with Inkscape (http://www.inkscape.org/) -->
<svg xmlns:rdf="http://www.w3.org/1999/02/22-rdf-syntax-ns#" xmlns="http://www.w3.org/2000/svg" xml:space="preserve" version="1.1" xmlns:cc="http://creativecommons.org/ns#" xmlns:dc="http://purl.org/dc/elements/1.1/" viewBox="0 0 688.75 343.75"><metadata><rdf:RDF><cc:Work rdf:about=""><dc:format>image/svg+xml</dc:format><dc:type rdf:resource="http://purl.org/dc/dcmitype/StillImage"/><dc:title/></cc:Work></rdf:RDF></metadata><defs/><g transform="matrix(1.25,0,0,-1.25,0,343.75)"><path d="M0,275,551,275,551,0,0,0,0,275z" fill-opacity="0"/><path d="M108.21,95.953,17.195,135.25,1,88.324,30.706,108.71,108.21,95.953z" fill-rule="evenodd" fill="#025"/><g transform="matrix(-7.861845e-5,4.376207e-6,4.376207e-6,7.861845e-5,107.4603,82.39777)"><path d="M0.021062,172420,1181900,606420,1354100,0.0034558,991850,279430,0.021062,172420z" fill="#025"/></g><path d="m408.12,206.3c0,2.0669,0,3.5434,1.4758,4.1339,2.0661,0.8859,3.5419,1.1812,5.9032,1.7717v0.2953h-42.798c-0.2952,0-0.2952-0.2953-0.2952-0.2953h0.2952c2.3612-0.5905,3.5419-0.8858,5.608-1.7717,1.4758-0.5905,1.4758-2.067,1.4758-4.1339v-38.682c0-8.8585-5.3129-15.65-16.529-15.65s-16.824,6.7915-16.824,15.65v38.682c0,2.0669,0.2952,3.5434,1.771,4.1339,2.0661,0.8859,3.2467,1.1812,5.608,1.7717h0.2952s0,0.2953-0.2952,0.2953h-40.437v-0.2953c1.4758-0.2953,2.3613-0.8858,3.5419-1.4764,1.1807-1.1811,1.4758-2.3623,1.4758-4.4292v-38.092c0-18.308,11.216-33.958,44.864-33.958s44.864,15.65,44.864,33.958v38.092z" fill-rule="evenodd" fill="#025"/><path d="m144.7,198.04h12.986c8.5587,0,13.281-1.1808,13.281-8.2654,0-4.4279-2.9513-8.5606-12.986-8.5606h-13.281v16.826zm0-28.634h11.215c7.3782,0,16.822,0,16.822-9.4461,0-7.0846-6.7879-9.4462-15.642-9.4462h-12.395v18.892zm-27.152,36.899v-64.352c0-2.0663,0-3.5423-1.7708-4.1327-2.0659-0.8855-3.2464-1.1807-5.6074-1.7711,0,0-0.2952-0.2952,0-0.2952h57.55c24.496,0,34.53,8.5606,34.53,22.435,0,10.036-5.0172,16.236-15.347,18.597,6.4928,1.7712,12.395,6.1991,12.395,16.826,0,14.169-10.625,18.892-33.644,18.892h-55.484v-0.2952c2.361-0.5904,3.5415-0.8856,5.6074-1.7711,1.7708-0.5904,1.7708-2.0664,1.7708-4.1327z" fill-rule="evenodd" fill="#025"/><path d="m270.19,212.2c1.476,0,3.8377-0.2952,3.5424-3.2471,0-2.6567-15.056-21.844-16.827-24.796-5.3137,7.3799-16.827,21.844-17.122,24.796,0,2.3615,2.0664,3.2471,4.1329,3.2471,0.2952,0,0.2952,0.2952,0,0.2952h-41.624c-0.2952,0-0.2952-0.2952,0-0.2952,1.7712-0.2952,2.6569-0.5904,4.7233-1.4759,0.2952,0,0.8856-0.2952,0.8856-0.5904,1.476-0.8856,2.3616-2.0664,4.1329-4.4279,29.225-39.261,29.225-39.261,29.225-39.261v-24.501c0-2.0663,0-3.5423-1.476-4.1327-2.0664-0.8855-3.5425-1.1807-5.9041-1.7711v-0.2952h45.166c0.2952,0,0.2952,0.2952,0.2952,0.2952h-0.2952c-2.3616,0.5904-3.5424,0.8856-5.6089,1.7711-1.476,0.5904-1.7712,2.0664-1.7712,4.1327v24.501c29.521,39.261,29.521,39.261,29.521,39.261,1.476,2.3615,2.6568,3.5423,3.8376,4.4279,0.2952,0.2952,0.8856,0.5904,1.1809,0.5904,1.1808,0.8855,1.7712,1.1807,3.2472,1.4759,0.2952,0,0.2952,0.2952,0,0.2952h-39.262v-0.2952z" fill-rule="evenodd" fill="#025"/><path d="m138.84,96.106c-3.5454-16.542-5.3182-26.881-5.3182-30.721,0-1.7724,0.2955-3.5448,0.8864-5.6126-2.6591-1.1816-5.3182-1.7724-7.6818-1.7724-3.25,0-4.7273,1.1816-4.7273,3.8402,0,1.477,1.4773,7.385,4.4318,17.428,0.5909,2.0678,2.0682,8.2711,4.4318,18.61,0.2955,2.0678,0.8864,4.1356,1.1819,5.908,0.5909,2.3631,0.8863,4.4309,0.8863,6.2033,0,1.477-0.2954,2.954-1.4773,4.1356,3.5455,2.3632,6.7955,3.2494,9.75,3.2494,2.3637,0,3.841-1.477,4.4319-4.431,1.4772-7.9758,4.1363-19.201,7.6818-33.675,5.0227,7.6804,10.045,15.361,14.773,22.45,4.4318,6.4987,6.5,10.634,6.5,12.407,0,0.2954-0.2954,1.1816-0.5909,1.7724,2.6591,0.8862,5.3182,1.477,8.5682,1.477,2.9545,0,4.4318-0.8862,4.4318-2.954,0-0.8862,0-2.0678-0.5909-3.8402-1.1818-4.1356-1.1818-4.1356-1.1818-4.1356-5.0228-21.564-7.6818-35.743-7.6818-42.242,0-1.477,0.2954-2.6586,1.1818-3.8402-2.9546-1.477-5.6137-2.3632-8.2728-2.3632-2.9545,0-4.4318,1.477-4.4318,3.8402,0,2.0678,0.5909,6.4988,2.0682,13.588,4.4318,22.45,4.4318,22.45,4.4318,22.45-10.932-16.247-16.841-26.29-17.432-29.835-2.6591-1.477-4.4318-2.0678-5.9091-2.0678s-2.9545,1.477-3.8409,4.431c-0.8864,3.2494-1.7727,7.0896-2.9545,12.111-1.4773,6.4988-2.6591,10.93-3.5455,13.588z" fill-rule="evenodd" fill="#025"/><path d="m195.59,73.048c-0.8841-2.0718-1.7683-3.8476-2.6524-5.9194-1.1789-2.9597-1.7683-5.0314-1.7683-6.8072v-0.88791c-2.3577-0.8879-4.4207-1.1839-6.189-1.1839s-2.3578,0.59194-2.3578,1.7758c0,0.8879,0.2948,1.7758,0.8842,2.9597,4.7154,8.879,9.4309,17.758,14.441,27.229,1.4735,2.6637,3.5365,6.5113,6.4837,12.135,3.8313,0.8879,3.8313,0.8879,3.8313,0.8879,1.7683,0.5919,3.2419,0.8879,4.126,0.8879,2.063,0,3.2419-1.7758,3.2419-5.0315v-4.4395-4.4395-14.502c0-7.3992,0.8841-12.431,3.2418-15.39-2.6524-1.4798-5.0101-2.0718-7.0731-2.0718-2.9472,0-4.7155,2.9597-5.0102,8.879v5.9194h-11.199zm2.063,4.7355h9.1362v3.8476,2.9597,5.3274c0.2947,1.4798,0.2947,2.9597,0.2947,4.1435v0.8879,2.6637c-3.2418-5.9194-6.189-12.431-9.4309-19.83z" fill-rule="evenodd" fill="#025"/><path d="m253.15,92.585c-1.4758,4.4383-4.1323,6.8054-7.9695,6.8054s-6.7889-2.663-9.1502-8.2848c-2.0662-5.9177-3.2469-11.835-3.2469-18.049,0-6.2136,1.4759-9.4684,4.7227-9.4684,1.1807,0,2.3614,0.59178,4.1324,1.1835,1.1807,2.9589,2.0662,6.8054,2.9517,10.948h-0.5904c-1.771,0-3.2468-0.29589-5.0178-0.88766,0.2951,2.3671,0.8855,4.1424,1.771,5.0301,0.8855,1.1835,3.2468,1.7753,7.084,1.7753h3.2469,3.2468c-1.771-5.9177-3.2468-11.54-3.8372-17.161-0.2951-3.2548-2.0661-5.0301-5.313-5.0301h-2.3613c-2.9517-1.1836-5.9034-2.0712-8.5599-2.0712-3.5421,0-6.1986,1.1836-8.5599,3.8465-2.0662,2.3671-2.9517,5.6218-2.9517,9.4684,0,8.5807,2.3613,15.978,7.3792,23.079,5.0179,6.8054,10.921,10.356,18.005,10.356,6.4937,0,9.7405-1.7754,9.7405-4.7342,0-1.7753-1.4758-4.1424-4.7227-6.8054z" fill-rule="evenodd" fill="#025"/><path d="m267.01,97.256c-1.769,0-3.2432-0.59032-4.7174-0.88549v1.1806c0,3.542,2.0638,5.3129,6.4864,5.3129h5.8967,3.8329c1.1794,0.2952,2.0638,0.2952,3.2432,0.8855v-0.8855c0-3.5419-2.0638-5.3129-5.8967-5.608-6.4864-33.058-6.4864-33.058-6.4864-33.058,1.769,0,3.2432,0.29516,4.4225,0.88548,0-0.88548,0.2949-1.1806,0.2949-1.4758,0-3.2468-1.7691-5.0178-5.0123-5.0178h-2.6535-5.0122c-2.6536,0-5.0122-0.29516-6.7813-0.59032,0,4.1323,1.7691,6.1984,5.6019,6.1984l6.7813,33.058z" fill-rule="evenodd" fill="#025"/><path d="m309.29,69.21c0.296-1.4794,0.5919-2.3671,0.5919-2.663,0-2.3671-2.0716-4.4383-6.2147-6.2136-4.1432-2.0712-7.6944-2.9589-10.95-2.9589-7.9903,0-11.838,4.4383-11.838,13.315,0,8.5807,2.3676,16.274,7.1026,23.079,5.031,6.8054,10.95,10.356,18.052,10.356,6.5107,0,9.4701-1.7754,9.4701-4.7342,0-1.7753-1.4797-4.1424-4.735-6.8054-1.4798,4.7342-3.8473,6.8054-7.3985,6.8054-3.5513,0-6.5107-2.663-8.8782-8.2848-2.0716-5.326-3.2554-11.244-3.2554-17.457,0-6.5095,2.0716-9.7642,6.2148-9.7642,3.2553,0,7.3985,1.7753,11.838,5.326z" fill-rule="evenodd" fill="#025"/><path d="m343.54,69.21c0.2956-1.4794,0.2956-2.3671,0.2956-2.663,0-2.3671-2.0689-4.4383-5.911-6.2136-4.1377-2.0712-7.9799-2.9589-11.231-2.9589-7.6844,0-11.822,4.4383-11.822,13.315,0,8.5807,2.66,16.274,7.3888,23.079,5.0243,6.8054,10.935,10.356,18.029,10.356,6.2065,0,9.4576-1.7754,9.4576-4.7342,0-1.7753-1.7733-4.1424-5.0244-6.8054-1.1822,4.7342-3.8421,6.8054-7.0932,6.8054-3.5466,0-6.5021-2.663-8.8665-8.2848-2.3644-5.326-3.251-11.244-3.251-17.457,0-6.5095,2.0688-9.7642,6.2065-9.7642,3.2511,0,7.0932,1.7753,11.822,5.326z" fill-rule="evenodd" fill="#025"/><path d="m382.74,67.748c3.2459-0.59079,5.9016-0.59079,7.9672-0.59079,5.0164,0,9.7377,0.88619,14.164,2.6586v-0.29539c0-4.7264-1.7704-7.9757-5.0164-9.4527-3.2459-1.1816-7.9672-2.0678-13.869-2.0678-0.8852,0-2.3607,0.2954-4.1312,0.2954-2.0655,0.2954-3.5409,0.2954-4.4262,0.2954-0.2951,0-0.8853-0.2954-1.7705-0.2954-0.8852-0.2954-1.7705-0.2954-2.0656-0.2954-2.9508,0-4.7213,0.88619-4.7213,2.954,0,1.7724,0.2951,3.8402,1.1804,6.2034,5.3114,20.678,8.2623,34.857,8.2623,42.833,0,1.7724-0.5902,2.954-1.4754,4.431,3.5409,2.0678,7.0819,2.954,10.328,2.954,2.9508,0,4.4262-0.8862,4.4262-2.954,0-1.477-0.5901-4.7264-1.7705-9.4528-5.9016-28.949-5.9016-28.949-5.9016-28.949-0.5902-3.5448-0.8852-6.2034-1.1803-8.2711z" fill-rule="evenodd" fill="#025"/><path d="m417.01,73.048c-0.8872-2.0718-1.7744-3.8476-2.6616-5.9194-1.1829-2.9597-1.7744-5.0314-1.7744-6.8072v-0.88791c-2.3658-0.8879-4.4359-1.1839-6.2104-1.1839-1.4786,0-2.3658,0.59194-2.3658,1.7758,0,0.8879,0.2957,1.7758,0.8872,2.9597,4.7317,8.879,9.7592,17.758,14.491,27.229,1.4786,2.6637,3.8445,6.5113,6.5061,12.135,3.8445,0.8879,3.8445,0.8879,3.8445,0.8879,1.7744,0.5919,3.2531,0.8879,4.1402,0.8879,2.3659,0,3.2531-1.7758,3.2531-5.0315v-4.4395-4.4395-14.502c0-7.3992,0.8872-12.431,3.253-15.39-2.6616-1.4798-5.0274-2.0718-7.0975-2.0718-2.9573,0-4.7318,2.9597-4.7318,8.879-0.2957,5.9194-0.2957,5.9194-0.2957,5.9194h-11.238zm2.0701,4.7355h9.1677v3.8476,2.9597,5.3274c0.2957,1.4798,0.2957,2.9597,0.2957,4.1435v0.8879,2.6637c-3.253-5.9194-6.2103-12.431-9.4634-19.83z" fill-rule="evenodd" fill="#025"/><path d="m466.29,83.132c6.194-1.774,9.1436-5.0264,9.1436-9.4615,0-4.1394-1.7697-7.6875-5.8991-10.94-3.8344-2.9567-8.5537-4.4351-14.158-4.4351h-2.3597c-1.1798,0.29567-1.7697,0.29567-2.3596,0.29567-0.295,0-0.8849,0-1.7697-0.29567-0.8849,0-1.4748-0.29568-1.7698-0.29568-2.3596,0-3.2445,0.88702-3.2445,2.3654,0,0.88702,0,1.774,0.295,2.9567,4.4243,17.74,6.489,28.976,6.489,34.002,0,1.1827-0.295,2.0697-0.8849,3.2524,4.1294,2.3654,9.4386,3.5481,15.928,3.5481,7.9638,0,11.798-2.6611,11.798-7.9832,0-5.0264-3.5395-9.4615-11.208-13.01zm-12.68-19.219c2.0646-0.59134,3.8344-0.88702,5.3092-0.88702,2.0647,0,3.8344,0.88702,5.0142,2.9567,1.4748,1.774,2.0647,4.1394,2.0647,6.8005,0,3.5481-1.4748,6.2091-5.0142,7.3918-1.4748-0.59134-2.9496-0.88701-4.4244-0.88701l-2.9495-15.375zm6.7839,34.889c-2.95-14.783-2.95-14.783-2.95-14.783,7.3739,1.1827,11.208,4.7308,11.208,10.644,0,3.2524-1.4748,4.7308-4.1294,4.7308-1.4748,0-2.6546-0.29567-4.1294-0.59135z" fill-rule="evenodd" fill="#025"/><path d="m214.27,4.1024,17.49-1.901,18.251-0.76047,14.829-0.38016,18.631,0,22.433,0.38016,15.969,0.76047,15.589,1.5209,15.589,1.5209,17.49,2.6615,16.73,3.4219,13.688,2.6615,16.35,4.5626,17.87,5.323,12.547,5.323,14.829,6.4637,13.308,6.0834,12.547,7.9846,12.547,8.7449,10.266,9.5054,9.5056,10.266,6.2242,11.787,5.9429,15.969-2.9092-6.739c1.1667,2.1666-2.6667-5.9167-1.75-3.75l-5-10-5.07-6.907-8.17-8.777-12.86-10.974-9.5-6.083-18.25-9.505-23.58-10.266-25.85-8.365-28.52-7.224-34.98-6.464-26.23-2.6612-23.58-0.7604h-22.433l-26.996,0.76039-20.912,1.5209-26.616,3.422-20.912,3.8021-25.475,6.8439-24.334,7.2241-13.688,5.323-11.787,5.7032-13.308,6.8439-12.167,7.6043-11.026,7.9845-9.8858,9.1252-7.2243,8.7449-4.183,6.464-19.011,6.464-5.703-10.266,4.5627-6.4636,4.5627-5.323,6.4638-6.4637,5.7033-5.323,6.844-6.0834,7.2242-4.9428,12.547-7.2241,11.026-6.0834,9.5056-4.1824,11.407-4.5626,15.589-5.323,11.787-3.8021,11.787-3.422,13.308-2.6615,14.448-3.422,18.251-3.0417,19.451-2.8616" fill-rule="evenodd" fill="#000"/><g fill="#025" transform="matrix(7.874016e-5,0,0,-7.874016e-5,31,106)"><path d="m2327500,1294100,222130,24143,231780,9658,188320,4828,236610,0,284900-4828,202810-9658,197980-19315,197980-19315,222130-33801,212470-43458,173840-33801,207640-57945,226960-67602,159350-67602,188320-82089,169010-77259l159400-101400,159300-111060,130400-120720,120700-130370,79100-149690,75500-202810-37000,85586c14800-27517-33900,75144-22200,47624l-63500,127000-64264,87722-103720,111460-163250,139370-120720,77259-231780,120720-299390,130380-328360,106230-362160,91746-444250,82088-333190,33802-299390,9657h-284900l-342850-9657-265590-19315-338020-43459-265590-48287-323530-86917-308900-91740-173800-67600-149700-72430-169050-86920-154530-96580-140030-101400-125550-115890-91750-111060-53120-82090-241440-82090-72432,130380,57946,82088,57946,67602,82090,82089,72432,67602,86919,77259,91748,62774,159350,91746,140040,77259,120720,53116,144860,57945,197980,67602,149690,48287,149690,43459,169010,33801,183500,43459,231780,38629,247020,36342" fill="#025"/></g><path d="m337.63,270.96-17.49,1.9011-18.251,0.7604-14.829,0.3802-18.631,0-22.433-0.3802-15.969-0.7604-15.589-1.5209-15.589-1.5208-17.49-2.6615-16.73-3.4219-13.688-2.6615-16.35-4.5626-17.87-5.323-12.547-5.323-14.829-6.4637-13.308-6.0834-12.547-7.9846-12.547-8.7449-10.266-9.5054-9.5055-10.266-6.2242-11.787-5.9429-15.969,2.9092,6.7391c-1.1667-2.1668,2.6667,5.9166,1.75,3.75l5,10,5.0602,6.9072,8.1672,8.7762,12.854,10.974,9.5056,6.0834,18.251,9.5054,23.574,10.266,25.855,8.3647,28.517,7.2241,34.98,6.4636,26.235,2.6616,23.574,0.7604h22.433l26.996-0.7604,20.912-1.5209,26.616-3.4219,20.912-3.8022,25.475-6.8438,24.334-7.2241,13.688-5.323,11.787-5.7032,13.308-6.8439,12.167-7.6043,11.026-7.9845,9.8858-9.1252,7.2242-8.7449,4.1825-6.4637,19.011-6.4636,5.7033,10.266-4.5627,6.4636-4.5627,5.323-6.4638,6.4637-5.7033,5.323-6.844,6.0834-7.2242,4.9428-12.547,7.2241-11.026,6.0834-9.5056,4.1824-11.407,4.5626-15.589,5.323-11.787,3.8021-11.787,3.422-13.308,2.6615-14.448,3.4219-18.251,3.0417-19.451,2.8616" fill-rule="evenodd" fill="#000"/><g fill="#025" transform="matrix(-7.874016e-5,0,0,7.874016e-5,520.8945,169.0608)"><path d="m2327500,1294100,222130,24143,231780,9658,188320,4828,236610,0,284900-4828,202810-9658,197980-19315,197980-19315,222130-33801,212470-43458,173840-33801,207640-57945,226960-67602,159350-67602,188320-82089,169010-77259,159350-101400,159350-111060,130380-120720,120720-130380,79048-149690l75600-202800-37000,85586c14817-27517-33867,75142-22225,47625l-63500,127000-64264,87722-103720,111460-163250,139370-120720,77259-231780,120720-299390,130370-328360,106230-362160,91746-444250,82088-333190,33802-299390,9657h-284900l-342850-9657-265590-19315-338020-43459-265590-48287-323530-86917-309050-91746-173840-67602-149690-72431-169010-86917-154370-96470-140030-101400-125550-115890-91750-111060-53120-82090-241440-82090-72432,130380,57946,82090,57946,67602,82090,82089,72432,67602,86919,77259,91748,62774,159350,91746,140040,77259,120720,53116,144870,57945,197980,67602,149690,48287,149690,43459,169010,33801,183500,43459,231780,38629,247020,36342" fill="#025"/></g><path d="m442.51,182.5,89.062-43.549,18.394,46.105-30.635-18.957-76.82,16.401z" fill-rule="evenodd" fill="#000"/><g fill="#025" transform="matrix(7.832394e-5,-8.085334e-6,-8.085334e-6,-7.832394e-5,443.9032,196)"><path d="M0.019194,172420,1181900,606430,1354100-0.035536,991850,279430,0.019194,172420z" fill="#025"/></g></g></svg>
