<svg xmlns="http://www.w3.org/2000/svg" viewBox="0 0 96 96">
  <path
     d="M 48,0 C 21.490332,0 0,21.490332 0,48 0,74.509668 21.490332,96 48,96 74.509668,96 96,74.509668 96,48 96,21.490332 74.509668,0 48,0 z m -16.34375,23.5 32.6875,0 c 4.4925,5e-4 8.15625,3.66425 8.15625,8.15625 l 0,32.6875 c 0,4.495 -3.66325,8.15675 -8.15625,8.15625 l -32.6875,0 C 27.16475,72.5 23.5,68.83875 23.5,64.34375 l 0,-32.6875 C 23.5,27.16375 27.16425,23.5 31.65625,23.5 z M 57.9375,26.5625 C 50.66,26.5625 48,30.2485 48,36.4375 L 48,41 l -4.4375,0 0,7 4.4375,0 0,21.4375 9.1875,0 0,-21.4375 7.96875,0 1.21875,-7 -9.1875,0 0,-3.8125 c 0,-1.979 0.24825,-3.03475 2.28125,-3.03125 l 6.875,0 0,-7.59375 -8.40625,0 z" />
</svg>
