<svg xmlns="http://www.w3.org/2000/svg" viewBox="0 0 96 96">
  <path
     d="M 48,0 C 21.490332,0 0,21.490332 0,48 0,74.509668 21.490332,96 48,96 74.509668,96 96,74.509668 96,48 96,21.490332 74.509668,0 48,0 z m 0,23.5 C 61.531,23.5 72.5,34.469 72.5,48 72.5,61.531 61.531,72.5 48,72.5 34.469,72.5 23.5,61.531 23.5,48 23.5,34.469 34.469,23.5 48,23.5 z m -1.03125,3.9375 c -2.412676,0.118686 -4.7515,0.65575 -6.96875,1.59375 -2.4495,1.0365 -4.6715,2.51525 -6.5625,4.40625 -1.891,1.891 -3.36975,4.113 -4.40625,6.5625 -1.072,2.534 -1.59375,5.22 -1.59375,8 0,2.78 0.52225,5.466 1.59375,8 1.0365,2.4495 2.51525,4.6715 4.40625,6.5625 1.891,1.891 4.113,3.36975 6.5625,4.40625 0.6995,0.296 1.4025,0.535 2.125,0.75 l 0,-3.75 c 0,-1.9455 0.66075,-3.3565 1.96875,-4.25 C 43.26425,59.63925 42.5065,59.5185 41.8125,59.375 41.1185,59.231 40.36725,59.05275 39.59375,58.78125 38.82025,58.51025 38.14525,58.188 37.53125,57.8125 36.91725,57.4375 36.316,56.94175 35.75,56.34375 35.184,55.74575 34.695,55.07 34.3125,54.3125 33.93,53.555 33.62975,52.623 33.40625,51.5625 c -0.2235,-1.0605 -0.3125,-2.224 -0.3125,-3.5 0,-2.4725 0.79525,-4.574 2.40625,-6.3125 -0.734,-1.8975 -0.6435,-3.985 0.25,-6.25 0.0475,-0.016 0.10725,-0.01575 0.21875,-0.03125 0.1115,-0.0155 0.359,-7.5e-4 0.75,0.03125 0.391,0.032 0.82675,0.1145 1.28125,0.25 0.455,0.136 1.055,0.375 1.8125,0.75 0.7575,0.375 1.56125,0.863 2.40625,1.4375 1.8665,-0.5265 3.8175,-0.8125 5.875,-0.8125 2.042,0 4.039,0.286 5.9375,0.8125 1.3395,-0.9095 2.5485,-1.56975 3.625,-1.96875 1.0765,-0.399 1.80425,-0.57925 2.21875,-0.53125 L 60.46875,35.5 c 0.893,2.249 0.9835,4.336 0.25,6.25 1.611,1.739 2.40625,3.84 2.40625,6.3125 0,1.276 -0.0895,2.4395 -0.3125,3.5 -0.223,1.0605 -0.555,1.9925 -0.9375,2.75 -0.3825,0.7575 -0.84025,1.43325 -1.40625,2.03125 -0.566,0.598 -1.16725,1.09375 -1.78125,1.46875 -0.614,0.3745 -1.289,0.69725 -2.0625,0.96875 -0.7735,0.2715 -1.52475,0.45025 -2.21875,0.59375 -0.694,0.1435 -1.45175,0.26375 -2.28125,0.34375 1.324,0.909 2,2.32 2,4.25 l 0,3.6875 c 0.6405,-0.199 1.2525,-0.4245 1.875,-0.6875 2.4495,-1.0365 4.6715,-2.51525 6.5625,-4.40625 1.8905,-1.891 3.36975,-4.113 4.40625,-6.5625 1.072,-2.534 1.59375,-5.2205 1.59375,-8 0,-2.7795 -0.52225,-5.4655 -1.59375,-8 C 65.93225,37.5505 64.4535,35.3285 62.5625,33.4375 60.6715,31.5465 58.45,30.06775 56,29.03125 c -2.534,-1.072 -5.22,-1.59375 -8,-1.59375 -0.3475,0 -0.686582,-0.01695 -1.03125,0 z" />
</svg>
