<svg xmlns="http://www.w3.org/2000/svg" viewBox="0 0 96 96">
  <path
     d="M 48,0 C 21.490332,0 0,21.490332 0,48 0,74.509668 21.490332,96 48,96 74.509668,96 96,74.509668 96,48 96,21.490332 74.509668,0 48,0 z m -16.28125,23.5 32.5625,0 c 4.5265,0 8.21875,3.69225 8.21875,8.21875 l 0,32.5625 C 72.5,68.80775 68.80775,72.5 64.28125,72.5 l -32.5625,0 C 27.19225,72.5 23.5,68.80775 23.5,64.28125 l 0,-32.5625 C 23.5,27.19225 27.19225,23.5 31.71875,23.5 z m 7.09375,9.1875 c -1.6915,0 -3.0625,1.371 -3.0625,3.0625 0,1.6915 1.371,3.0625 3.0625,3.0625 1.6915,0 3.0625,-1.371 3.0625,-3.0625 0,-1.6915 -1.371,-3.0625 -3.0625,-3.0625 z m -3.0625,9.1875 0,21.4375 6.125,0 0,-21.4375 -6.125,0 z m 9.1875,0 0,21.4375 6.125,0 0,-12.25 C 51.0625,49.371 52.4335,48 54.125,48 c 1.6915,0 3.0625,1.371 3.0625,3.0625 l 0,12.25 6.125,0 0,-13.78125 c 0,-4.228 -3.069,-7.65625 -6.875,-7.65625 -2.165,0 -4.112,2.0775 -5.375,3.8125 l 0,-3.8125 -6.125,0 z" />
</svg>
